<?xml version="1.0" encoding="utf-8"?>
<!-- Generator: Adobe Illustrator 24.3.0, SVG Export Plug-In . SVG Version: 6.00 Build 0)  -->
<svg version="1.1" id="Layer_1" xmlns="http://www.w3.org/2000/svg" xmlns:xlink="http://www.w3.org/1999/xlink" x="0px" y="0px"
	 width="413px" height="183px" viewBox="0 0 413 183" style="enable-background:new 0 0 413 183;" xml:space="preserve">
<style type="text/css">
	.st0{fill:#F8972A;}
	.st1{fill:#414042;}
</style>
<g>
	<g>
		<g>
			<rect x="47.2" y="87.2" class="st0" width="11.7" height="11.5"/>
			<rect x="47.2" y="69.5" class="st0" width="11.7" height="11.4"/>
			<rect x="47.2" y="52.3" class="st0" width="11.7" height="11.4"/>
			<rect x="47.2" y="35.2" class="st0" width="11.7" height="11.4"/>
			<rect x="47.2" y="18" class="st0" width="11.7" height="11.4"/>
			<rect x="47.2" y="0.8" class="st0" width="11.7" height="11.4"/>
			<rect x="47.2" y="104.4" class="st0" width="11.7" height="11.4"/>
			<rect x="70.5" y="87.2" class="st0" width="11.7" height="11.5"/>
			<rect x="70.5" y="69.5" class="st0" width="11.7" height="11.4"/>
			<rect x="70.5" y="52.3" class="st0" width="11.7" height="11.4"/>
			<rect x="23.9" y="105" class="st0" width="11.7" height="11.5"/>
			<rect x="23.9" y="87.3" class="st0" width="11.7" height="11.4"/>
			<rect x="23.9" y="70.1" class="st0" width="11.7" height="11.4"/>
			<rect x="23.9" y="52.9" class="st0" width="11.7" height="11.5"/>
			<rect x="23.9" y="35.8" class="st0" width="11.7" height="11.4"/>
			<rect x="23.9" y="122.1" class="st0" width="11.7" height="11.4"/>
			<rect x="0.6" y="87.3" class="st0" width="11.7" height="11.4"/>
			<rect x="0.6" y="70.1" class="st0" width="11.7" height="11.4"/>
			<rect x="0.6" y="52.9" class="st0" width="11.7" height="11.5"/>
			<rect x="0.6" y="35.8" class="st0" width="11.7" height="11.4"/>
			<rect x="0.6" y="18.6" class="st0" width="11.7" height="11.4"/>
		</g>
	</g>
	<g>
		<g>
			<path class="st1" d="M99.5,94.4h3c1.2,0,2.3-1.3,2.3-2.4V54.9c0-1.1-1.1-2.4-2.3-2.4h-3v-4.9h18.7l12.1,38.5h0.2l12.3-38.5h18.5
				v4.9h-3.1c-1.2,0-2.3,1.3-2.3,2.4v37.1c0,1,1.1,2.4,2.3,2.4h3.1v4.7h-19.6v-4.7h5.7V53.3h-0.5l-14.6,45.8h-6l-14.6-45.8h-0.4
				v41.1h5.8v4.7H99.5V94.4z"/>
			<path class="st1" d="M162.2,80c0-12.2,7.6-19.9,18.8-19.9c10.8,0,17.1,5.7,17.1,18.5c0,1.1-0.1,2.1-0.1,2.4h-27.4
				c0.3,9,4.2,13.4,11.8,13.4c5.4,0,7.9-1.9,9.9-4.3h4.6v5.4c-3,2-7.4,4-15.1,4C168.8,99.6,162.2,92.1,162.2,80z M190,76.3
				c-0.3-8.2-3.5-11.3-9-11.3c-5.8,0-9.6,3.7-10.3,11.3H190z"/>
			<path class="st1" d="M199.4,94.4h2.9c1,0,2-1,2-2V67.7c0-0.9-1-2.1-2-2.1h-3.2v-5h11.3c1.1,0,1.9,1,1.8,4.7v1
				c3.8-3.5,9.2-6.2,15.2-6.2c5.5,0,10.1,2,10.1,9.6v22.7c0,1,1,2,1.9,2h2.4v4.7h-17.6v-4.7h5.3V72.4c0-4.8-2.1-6-6-6
				c-4.1,0-7.9,1.7-11.3,3.7v24.3h5.4v4.7h-18.2V94.4z"/>
			<path class="st1" d="M243.2,97.4v-8h4.8c0.9,3.6,3.4,5.1,8.5,5.1c5.3,0,8.5-1.9,8.5-5.9c0-3.6-2.6-4.6-9.2-5.7
				c-7.9-1.2-12.1-3.7-12.1-11.3c0-7.2,5.5-11.4,14.7-11.4c6.1,0,9.9,0.9,12.7,1.9v7.6h-4.6c-0.8-2.9-2.9-4.3-8.3-4.3
				c-4.7,0-7.5,1.9-7.5,5.1c0,3.4,2.1,4.6,8.8,5.6c8.8,1.3,12.9,3.7,12.9,11.3c0,7.4-5.1,12.1-15.8,12.1
				C249.7,99.6,246,98.5,243.2,97.4z"/>
			<path class="st1" d="M274.1,94.4h3.1c1.1,0,2.3-1.3,2.3-2.4V54.9c0-1.1-1.2-2.4-2.3-2.4h-3.1v-4.9h21.3v4.9H288V94h18.8l0.8-10.8
				h5.8v16h-39.3V94.4z"/>
			<path class="st1" d="M314.5,94.4h2.9c1,0,2-1,2-2V67.7c0-0.9-1-2.1-1.9-2.1h-3.2v-5h11.6c1,0,1.5,0.9,1.5,3.4v28.5c0,1,1,2,2,2
				h2.9v4.7h-17.7V94.4z M318.6,52.1c0-2.5,2-4.5,4.6-4.5c2.5,0,4.6,2,4.6,4.5s-2.1,4.5-4.6,4.5C320.5,56.6,318.6,54.6,318.6,52.1z"
				/>
			<path class="st1" d="M333.1,94.4h2.9c1,0,2-1,2-2V67.7c0-0.9-1-2.1-2-2.1h-3.2v-5h11.3c1.1,0,1.9,1,1.8,4.7v1
				c3.8-3.5,9.2-6.2,15.2-6.2c5.5,0,10.1,2,10.1,9.6v22.7c0,1,1,2,1.9,2h2.4v4.7h-17.6v-4.7h5.3V72.4c0-4.8-2.1-6-6-6
				c-4.1,0-7.9,1.7-11.3,3.7v24.3h5.4v4.7h-18.2V94.4z"/>
			<path class="st1" d="M376.6,80c0-12.2,7.6-19.9,18.8-19.9c10.8,0,17.1,5.7,17.1,18.5c0,1.1-0.1,2.1-0.1,2.4h-27.4
				c0.3,9,4.2,13.4,11.8,13.4c5.4,0,7.9-1.9,9.9-4.3h4.6v5.4c-3,2-7.4,4-15.1,4C383.2,99.6,376.6,92.1,376.6,80z M404.4,76.3
				c-0.3-8.2-3.5-11.3-9-11.3c-5.8,0-9.6,3.7-10.3,11.3H404.4z"/>
			<path class="st0" d="M133.8,144.4h-20.2l-2,5.7c-1.3,3.7-0.9,5.9,2.4,5.9h3.5v4.7H99.1V156h1.8c1.5,0,2.6-1,3.2-2.5l13.3-36.9
				c0.5-1.5-0.2-2.5-1.5-2.5h-4v-4.9h18.6l15.1,44.3c0.4,1.3,1.7,2.4,2.9,2.4h2v4.7h-20.1V156h7.2L133.8,144.4z M115.5,139.4h16.7
				l-7.9-23.9h-0.3L115.5,139.4z"/>
			<path class="st0" d="M153.3,151.6v-22.5c0-1-1-2-2-2h-2.9v-5h12.8v27c0,5,2.6,6.3,6.2,6.3c4,0,7.9-1.8,11-3.8v-24.4h-5.5v-5h13.5
				v31.8c0,1,1,2.1,2.1,2.1h2.9v4.7h-11.1c-1,0-1.8-0.9-1.8-4.5v-1c-4,3.5-8.6,6-14.9,6C158.2,161.2,153.3,159,153.3,151.6z"/>
			<path class="st0" d="M192.8,158.9v-8h4.8c0.9,3.6,3.4,5.1,8.5,5.1c5.3,0,8.5-1.9,8.5-5.9c0-3.6-2.6-4.6-9.2-5.7
				c-7.9-1.2-12.1-3.7-12.1-11.3c0-7.2,5.5-11.4,14.7-11.4c6.1,0,9.9,0.9,12.7,1.9v7.6h-4.6c-0.8-2.9-2.9-4.3-8.3-4.3
				c-4.7,0-7.5,1.9-7.5,5.1c0,3.4,2.1,4.6,8.8,5.6c8.8,1.3,12.9,3.7,12.9,11.3c0,7.4-5.1,12.1-15.8,12.1
				C199.3,161.1,195.6,160,192.8,158.9z"/>
			<path class="st0" d="M227.4,151.5v-24.4h-4.9v-5h4.9v-10.4h7.9v10.4h8.8v5h-8.8v23.5c0,4.3,1.5,5.3,5.4,5.3h3.9v4.3
				c-1.4,0.5-3.7,1-6.4,1C231.3,161.2,227.4,158.8,227.4,151.5z"/>
			<path class="st0" d="M245.6,156h2.9c1,0,2-1,2-2v-24.8c0-0.9-1-2.1-2-2.1h-3.2v-5h11.3c1.1,0,1.8,1,1.8,5.1v1.3
				c2.7-3.5,6.1-6.7,11.5-6.7c0.9,0,1.6,0.1,2.2,0.3v6.5h-1.5c-5.9,0-9.3,1.4-12.1,3.9V156h6.1v4.7h-18.9V156z"/>
			<path class="st0" d="M271.7,149.6c0-7.9,6.3-11.7,15.2-11.7c3.5,0,6.1,0.4,8.8,1v-5.1c0-4.9-2.9-6.7-7.8-6.7
				c-5.1,0-7.9,1.8-10,3.6h-3.7v-6.1c3.3-1.6,8-3,15.1-3c9,0,14.3,2.9,14.3,11.4v20.5c0,1.5,1,2.4,2.4,2.4h2v4
				c-1,0.7-2.9,1.2-5.1,1.2c-4.2,0-6.4-1.7-7-5.2c-2.9,3.5-6.6,5.2-11.8,5.2C276.9,161.1,271.7,157.3,271.7,149.6z M295.8,151.8
				v-8.4c-2.2-0.4-4.6-0.7-7.2-0.7c-5.6,0-9,2-9,6.8c0,4.7,2.6,6.6,7.1,6.6C290.8,156,293.4,154.3,295.8,151.8z"/>
			<path class="st0" d="M309,156h2.8c1,0,2.1-1,2.1-2v-37.9c0-0.9-1-2.1-2.1-2.1h-3v-4.9h11.5c1,0,1.5,0.7,1.5,2V154c0,1,1,2,2,2
				h2.9v4.7H309V156z"/>
			<path class="st0" d="M327.6,156h2.9c1,0,2-1,2-2v-24.8c0-0.9-1-2.1-1.9-2.1h-3.2v-5h11.6c1,0,1.5,0.9,1.5,3.4V154c0,1,1,2,2,2
				h2.9v4.7h-17.7V156z M331.7,113.6c0-2.5,2-4.5,4.6-4.5c2.5,0,4.6,2,4.6,4.5c0,2.5-2.1,4.5-4.6,4.5
				C333.6,118.1,331.7,116.1,331.7,113.6z"/>
			<path class="st0" d="M346.5,149.6c0-7.9,6.3-11.7,15.2-11.7c3.5,0,6.1,0.4,8.8,1v-5.1c0-4.9-2.9-6.7-7.8-6.7
				c-5.1,0-7.9,1.8-10,3.6h-3.7v-6.1c3.3-1.6,8-3,15.1-3c9,0,14.3,2.9,14.3,11.4v20.5c0,1.5,1,2.4,2.4,2.4h2v4
				c-1,0.7-2.9,1.2-5.1,1.2c-4.2,0-6.4-1.7-7-5.2c-2.9,3.5-6.6,5.2-11.8,5.2C351.7,161.1,346.5,157.3,346.5,149.6z M370.6,151.8
				v-8.4c-2.2-0.4-4.6-0.7-7.2-0.7c-5.6,0-9,2-9,6.8c0,4.7,2.6,6.6,7.1,6.6C365.6,156,368.2,154.3,370.6,151.8z"/>
		</g>
	</g>
</g>
</svg>
