<svg width="256" height="238" viewBox="0 0 256 238" fill="none" xmlns="http://www.w3.org/2000/svg">
<g clip-path="url(#clip0_756_15014)">
<path d="M128 237.55C170.95 237.55 205.821 232.197 205.821 225.653C205.821 219.109 170.95 213.755 128 213.755C85.0499 213.755 50.1794 219.109 50.1794 225.653C50.1794 232.197 85.0499 237.55 128 237.55Z" fill="#E9E2DE"/>
<mask id="mask0_756_15014" style="mask-type:luminance" maskUnits="userSpaceOnUse" x="0" y="0" width="256" height="197">
<path d="M256 0.449707H0V196.759H256V0.449707Z" fill="white"/>
</mask>
<g mask="url(#mask0_756_15014)">
<path d="M250.472 196.759C250.047 196.759 249.706 196.589 249.281 196.334L237.204 186.816C236.439 186.221 236.269 185.031 236.864 184.182C237.459 183.417 238.65 183.247 239.5 183.842L251.577 193.36C252.343 193.955 252.513 195.144 251.918 195.994C251.577 196.504 250.982 196.759 250.472 196.759Z" fill="#FFCF8D"/>
<path d="M237.374 14.3869C236.779 14.3869 236.268 14.132 235.928 13.7071C235.333 12.8573 235.418 11.7525 236.268 11.0726L249.366 0.874759C250.217 0.279883 251.322 0.364865 252.003 1.21469C252.598 2.06451 252.513 3.16928 251.663 3.84914L238.565 14.047C238.225 14.302 237.799 14.3869 237.374 14.3869Z" fill="#FFCF8D"/>
<path d="M223.766 97.4995C223.766 97.4995 229.635 102.853 226.743 111.267C226.658 111.267 223.851 109.567 223.766 97.4995Z" fill="#28C86E"/>
<path d="M239.585 110.332C239.585 110.332 234.227 121.89 223.086 116.281C223.086 116.366 226.318 111.522 239.585 110.332Z" fill="#28C86E"/>
<path d="M219.769 125.799C219.173 125.799 218.748 125.289 218.663 124.694C218.493 123.504 223.086 107.357 239.841 100.559C240.436 100.304 241.031 100.559 241.286 101.154C241.542 101.749 241.286 102.428 240.691 102.598C225.892 108.632 221.045 122.739 220.875 124.609C220.96 125.204 220.534 125.714 219.854 125.799H219.769Z" fill="#28C86E"/>
<path d="M244.348 96.6498C244.348 96.6498 242.562 84.4973 237.459 85.2622C232.356 86.027 240.946 97.5846 244.348 96.6498Z" fill="#FFCF8D"/>
<path d="M244.263 96.5652C244.263 96.5652 234.738 87.0471 232.952 91.8062C231.08 96.4802 243.413 99.9645 244.263 96.5652Z" fill="#FFCF8D"/>
<path d="M245.369 98.5196C245.369 98.5196 233.972 92.4009 234.057 98.0097C234.142 103.534 245.794 102.429 245.369 98.5196Z" fill="#FFCF8D"/>
<path d="M246.559 98.7743C246.559 98.7743 252.173 87.1317 246.559 87.4717C240.946 87.8116 242.732 99.3692 246.559 98.7743Z" fill="#FFCF8D"/>
<path d="M244.944 99.1994C244.944 99.1994 255.15 107.188 255.915 101.664C256.766 96.1401 245.199 95.2902 244.944 99.1994Z" fill="#FFCF8D"/>
<path d="M244.858 100.389C244.858 100.389 254.809 97.1596 252.003 93.8453C249.196 90.531 242.647 98.3494 244.858 100.389Z" fill="#FFCF8D"/>
<path d="M245.539 99.7095C245.539 99.7095 257.106 103.704 255.49 108.548C253.789 113.477 244.008 102.854 245.539 99.7095Z" fill="#FFCF8D"/>
<path d="M246.049 99.0293C246.049 99.0293 253.704 110.162 248.686 111.097C243.668 111.947 242.477 99.2842 246.049 99.0293Z" fill="#FFCF8D"/>
<path d="M246.134 98.1795C246.134 98.1795 244.688 111.012 240.181 107.783C235.673 104.553 243.242 95.6301 246.134 98.1795Z" fill="#FFCF8D"/>
<path d="M249.706 104.128C250.982 103.023 249.961 99.7092 247.325 96.5648C244.773 93.4205 241.627 91.8058 240.351 92.8256C239.075 93.9304 240.096 97.2447 242.732 100.389C245.369 103.533 248.431 105.233 249.706 104.128Z" fill="#FF9F1A"/>
<path d="M9.35558 196.079C8.76023 196.079 8.24993 195.824 7.90973 195.399C7.31438 194.55 7.39943 193.445 8.24993 192.765L21.3476 182.567C22.1981 181.972 23.3038 182.057 23.9842 182.907C24.5795 183.757 24.4944 184.862 23.644 185.542L10.5463 195.739C10.121 195.994 9.78083 196.079 9.35558 196.079Z" fill="#FFCF8D"/>
<path d="M21.3475 13.7071C20.9222 13.7071 20.582 13.5372 20.1568 13.2822L8.16475 3.76421C7.39931 3.16933 7.22921 1.97958 7.82455 1.21474C8.4199 0.449896 9.6106 0.279931 10.4611 0.874807L22.5382 10.3928C23.3036 10.9877 23.4737 12.1775 22.8784 13.0273C22.4531 13.4522 21.9428 13.7071 21.3475 13.7071Z" fill="#FFCF8D"/>
<path d="M32.234 41.8364C32.234 41.8364 26.3655 47.1903 29.2572 55.6036C29.2572 55.6036 32.1489 53.9889 32.234 41.8364Z" fill="#28C86E"/>
<path d="M16.4146 54.6685C16.4146 54.6685 21.7727 66.2261 32.9142 60.6172C32.9142 60.7022 29.6823 55.8582 16.4146 54.6685Z" fill="#28C86E"/>
<path d="M36.2312 70.1355C36.2312 70.1355 36.1462 70.1355 36.0611 70.1355C35.4658 70.0505 35.0405 69.5406 35.0405 69.0307C34.8704 67.1611 30.0226 53.139 15.2239 47.1053C14.6285 46.8504 14.3734 46.1705 14.6285 45.6606C14.8837 45.0657 15.5641 44.8108 16.0744 45.0657C32.7442 51.8643 37.3369 68.0959 37.2518 69.2007C37.3369 69.7106 36.8266 70.1355 36.2312 70.1355Z" fill="#28C86E"/>
<path d="M11.6519 40.9867C11.6519 40.9867 13.4379 28.8343 18.5409 29.5991C23.6439 30.3639 15.0538 41.9215 11.6519 40.9867Z" fill="#FFCF8D"/>
<path d="M11.6519 40.9016C11.6519 40.9016 21.1774 31.3836 22.9635 36.1426C24.8346 40.8166 12.5874 44.3009 11.6519 40.9016Z" fill="#FFCF8D"/>
<path d="M10.6313 42.8561C10.6313 42.8561 22.028 36.7373 21.9429 42.3462C21.7728 47.87 10.2061 46.7652 10.6313 42.8561Z" fill="#FFCF8D"/>
<path d="M9.4406 43.1112C9.4406 43.1112 3.82731 31.4686 9.4406 31.8086C14.9688 32.1485 13.2678 43.7061 9.4406 43.1112Z" fill="#FFCF8D"/>
<path d="M11.0564 43.5358C11.0564 43.5358 0.850425 51.5242 0.0849764 46.0003C-0.765522 40.4765 10.8013 39.6267 11.0564 43.5358Z" fill="#FFCF8D"/>
<path d="M11.1416 44.7258C11.1416 44.7258 1.19079 41.4965 3.99743 38.1822C6.80408 34.9528 13.3529 42.6862 11.1416 44.7258Z" fill="#FFCF8D"/>
<path d="M10.4611 44.1309C10.4611 44.1309 -1.10566 48.125 0.510287 52.969C2.12623 57.813 11.992 47.1902 10.4611 44.1309Z" fill="#FFCF8D"/>
<path d="M9.95088 43.3662C9.95088 43.3662 2.2964 54.4989 7.31434 55.4337C12.3323 56.3685 13.523 43.6212 9.95088 43.3662Z" fill="#FFCF8D"/>
<path d="M9.86572 42.516C9.86572 42.516 11.3116 55.3483 15.8192 52.119C20.3269 48.8896 12.7574 39.9665 9.86572 42.516Z" fill="#FFCF8D"/>
<path d="M13.2677 44.8107C15.8192 41.6664 16.9248 38.3521 15.6491 37.2473C14.3734 36.1425 11.2265 37.8422 8.67502 40.9865C6.12352 44.1309 5.01787 47.4452 6.29362 48.5499C7.56937 49.5697 10.6312 47.8701 13.2677 44.8107Z" fill="#FF9F1A"/>
<path d="M218.153 181.802H40.3137C35.5509 181.802 31.7236 177.893 31.7236 173.134V33.1679C31.7236 31.2133 33.3396 29.5986 35.2957 29.5986H223.256C225.212 29.5986 226.828 31.2133 226.828 33.1679V173.219C226.743 177.978 222.916 181.802 218.153 181.802Z" fill="#80E6ED"/>
<path d="M188.896 171.179H52.7308C45.4165 171.179 39.5481 165.316 39.5481 158.007V28.749H217.727V141.011L188.896 171.179Z" fill="#CCF6F4"/>
<path d="M217.727 140.841H203.099C195.189 140.841 188.811 147.214 188.811 155.118V171.18L217.727 140.841Z" fill="#00CDDC"/>
<path d="M175.118 107.103C175.883 132.172 157.257 150.359 132.167 150.359C107.078 150.359 83.1787 136.082 83.1787 110.927C83.1787 85.857 104.951 59.1725 130.466 61.0421C155.556 62.9967 174.352 78.7184 175.118 107.103Z" fill="white"/>
<path d="M120.346 129.538C119.155 129.538 117.964 129.113 116.944 128.348L103.761 116.451C102.4 115.176 102.23 113.052 103.506 111.607C104.781 110.247 106.908 110.077 108.354 111.352L120.09 122.06L150.538 83.6476C151.729 82.2029 153.855 81.948 155.301 83.0527C156.747 84.1575 157.002 86.3671 155.896 87.8118L124.513 127.499C123.407 128.943 121.876 129.538 120.346 129.538Z" fill="#00CDDC"/>
<path d="M219.514 19.061H38.9529C36.0612 19.061 33.3396 21.2706 32.2339 25.0948C31.8937 26.2845 31.7236 27.6443 31.7236 29.089V32.8282H226.828V29.089C226.828 27.7292 226.658 26.3695 226.318 25.0948C225.127 21.3556 222.32 19.061 219.514 19.061Z" fill="#40D9E5"/>
<path d="M52.901 29.9387C55.2824 29.9387 57.2386 27.9841 57.2386 25.6046C57.2386 23.2251 55.2824 21.2705 52.901 21.2705C50.5196 21.2705 48.5635 23.2251 48.5635 25.6046C48.5635 27.9841 50.5196 29.9387 52.901 29.9387Z" fill="#CCF6F4"/>
<path d="M185.579 29.9387C187.96 29.9387 189.916 27.9841 189.916 25.6046C189.916 23.2251 187.96 21.2705 185.579 21.2705C183.197 21.2705 181.241 23.2251 181.241 25.6046C181.241 27.9841 183.197 29.9387 185.579 29.9387Z" fill="#CCF6F4"/>
<path d="M53.4963 27.5595C53.1561 27.5595 52.7308 27.3045 52.6458 26.9646C52.0504 25.3499 51.7102 23.7353 51.7102 22.0356C51.7102 14.5572 57.7487 8.52344 65.2331 8.52344C71.4418 8.52344 76.885 12.7726 78.3308 18.8063C78.5009 19.3162 78.1607 19.8261 77.6504 19.9111C77.1401 19.996 76.6298 19.7411 76.5448 19.2312C75.269 13.9623 70.5913 10.393 65.2331 10.393C58.8544 10.393 53.5813 15.662 53.5813 22.0356C53.5813 23.4803 53.8365 24.925 54.3468 26.2847C54.5169 26.7946 54.3468 27.3045 53.8365 27.4745C53.7514 27.5595 53.5813 27.5595 53.4963 27.5595Z" fill="#00CDDC"/>
<path d="M185.664 27.5595C185.324 27.5595 184.898 27.3045 184.813 26.9646C184.218 25.3499 183.878 23.7353 183.878 22.0356C183.878 14.5572 189.916 8.52344 197.401 8.52344C203.609 8.52344 209.052 12.7726 210.498 18.8063C210.668 19.3162 210.328 19.8261 209.818 19.9111C209.308 19.996 208.797 19.7411 208.712 19.2312C207.436 13.9623 202.759 10.393 197.401 10.393C191.022 10.393 185.749 15.662 185.749 22.0356C185.749 23.4803 186.004 24.925 186.514 26.2847C186.684 26.7946 186.514 27.3045 186.004 27.4745C185.834 27.5595 185.749 27.5595 185.664 27.5595Z" fill="#00CDDC"/>
<path d="M208.542 58.663C208.032 58.663 207.607 58.2381 207.607 57.7282V44.216C207.607 41.6665 205.48 39.542 202.929 39.542H189.151C188.641 39.542 188.215 39.1171 188.215 38.6072C188.215 38.0973 188.641 37.6724 189.151 37.6724H202.929C206.501 37.6724 209.478 40.6467 209.478 44.216V57.7282C209.478 58.2381 209.053 58.663 208.542 58.663Z" fill="white"/>
</g>
</g>
<defs>
<clipPath id="clip0_756_15014">
<rect width="256" height="237.101" fill="white" transform="translate(0 0.449707)"/>
</clipPath>
</defs>
</svg>
