<svg width="324" height="297" viewBox="0 0 324 297" fill="none" xmlns="http://www.w3.org/2000/svg">
<g clip-path="url(#clip0_350_1778)">
<path d="M321.89 133.01C320.19 30.29 299.82 32.56 260.2 18.41C189.47 -6.85 -3.54995 -36.49 0.0500491 156.3C1.35005 225.92 -1.05995 269.05 42.93 285.76C95.7101 305.81 199.77 291.74 249.13 292.14C339.6 292.87 322.32 159.08 321.89 133.01Z" fill="white"/>
<path d="M233.4 142.22C233.48 145.88 220.99 145.77 211.15 140.53C195.43 132.82 163.76 100.67 182.91 66.25C196.63 41.59 233.05 142.87 233.4 142.22Z" fill="#00CDDC"/>
<path d="M110.12 127.5C110.98 130.69 113.87 138.07 128.89 133.83C141.26 121.45 177.61 85.73 151.44 62.87C132.7 46.49 110.61 127.94 110.12 127.5Z" fill="#00CDDC"/>
<path d="M243.08 123.06C243.08 123.06 184.31 140.76 160.19 103.01C160.19 103.01 195.64 82.21 243.08 123.06Z" fill="#28C86E"/>
<path d="M214.04 91.12C214.04 91.12 194.26 119.59 151.99 106.76C151.99 106.76 157.38 92.98 214.04 91.12Z" fill="#3CDC82"/>
<path d="M130.13 107.5C113 115.46 86.79 138.13 89.79 183.34C90.59 195.47 92.35 216.91 99.77 229.66C107.19 242.4 96.73 254.82 100.66 266.88C107.39 287.51 124.75 255.14 178.69 250.74C211.02 248.1 231.31 268.11 232.5 245.36C232.95 236.84 218.5 234.21 223.08 220.7C228.77 203.93 239.07 211.19 240.45 185.24C245.07 98.31 162.9 92.28 130.13 107.5Z" fill="#32DCD2"/>
<path d="M143.98 155.34C143.98 158.29 141.59 152.69 138.63 152.69C135.67 152.69 133.28 158.29 133.28 155.34C133.28 152.39 135.67 149.99 138.63 149.99C141.59 149.99 143.98 152.38 143.98 155.34Z" fill="black"/>
<path d="M188.03 155.34C188.03 158.29 185.64 152.69 182.68 152.69C179.72 152.69 177.33 158.29 177.33 155.34C177.33 152.39 179.72 149.99 182.68 149.99C185.64 149.99 188.03 152.38 188.03 155.34Z" fill="black"/>
<path d="M171.07 167.12C171.07 168.58 166.95 176.68 161.04 176.68C155.13 176.68 149.65 168.58 149.65 167.12C149.65 165.66 154.45 166.89 160.36 166.89C166.27 166.9 171.07 165.67 171.07 167.12Z" fill="black"/>
<path d="M161.45 169.12H159.03C158.67 169.12 158.38 168.83 158.38 168.47V166.84H162.09V168.47C162.1 168.83 161.81 169.12 161.45 169.12Z" fill="white"/>
<path d="M172.58 64.98H165.34V71.7H172.58V64.98Z" fill="#FFCF8D"/>
<path d="M155.9 51.37C152.08 49.89 146.85 45.77 146.85 41.69V39.22H153.37V33.97H144.12C142.6 33.97 141.4 35.12 141.4 36.56V41.63C141.4 48.65 149.04 55.13 155.9 56.77V51.37Z" fill="#FFCF8D"/>
<path d="M182.01 51.37C185.83 49.89 191.06 45.77 191.06 41.69V39.22H184.54V33.97H193.79C195.31 33.97 196.51 35.12 196.51 36.56V41.63C196.51 48.65 188.87 55.13 182.01 56.77V51.37Z" fill="#FFCF8D"/>
<path d="M186.86 30.23C186.86 30.23 186.03 28.9 185.19 28.9H152.72C151.88 28.9 151.05 30.23 151.05 30.23L150.95 49.36C150.94 51.95 151.6 67.16 168.96 67.16C186.32 67.16 186.98 51.95 186.97 49.36L186.86 30.23Z" fill="#FF9F1A"/>
<path d="M170.08 39.84L171.65 43.03C171.83 43.4 172.18 43.65 172.59 43.71L176.11 44.22C177.13 44.37 177.54 45.63 176.8 46.35L174.25 48.83C173.96 49.12 173.82 49.53 173.89 49.93L174.49 53.44C174.66 54.46 173.6 55.24 172.68 54.75L169.53 53.09C169.17 52.9 168.73 52.9 168.37 53.09L165.22 54.75C164.31 55.23 163.24 54.45 163.41 53.44L164.01 49.93C164.08 49.53 163.95 49.11 163.65 48.83L161.1 46.35C160.36 45.63 160.77 44.37 161.79 44.22L165.31 43.71C165.72 43.65 166.07 43.4 166.25 43.03L167.82 39.84C168.3 38.91 169.62 38.91 170.08 39.84Z" fill="#FFCF8D"/>
<path d="M184.05 76.84H153.9C153.07 76.84 152.33 77.37 152.32 78.07C152.32 78.08 152.32 78.08 152.32 78.09V84.26C152.32 85.11 153.12 85.71 154.06 85.71H183.87C184.88 85.71 185.61 85.05 185.61 84.26V78.16C185.61 77.93 185.55 77.73 185.45 77.54C185.2 77.09 184.63 76.84 184.05 76.84Z" fill="#FF9F1A"/>
<path d="M178.22 77.04V72.96C178.22 71.95 177.42 71.22 176.41 71.22L161.09 71.2C160.29 71.38 159.7 72.08 159.7 72.89V77.05H178.22V77.04Z" fill="#FF9F1A"/>
<path d="M174.16 73.87C174.16 73.87 180.67 81.94 175.22 92.31C175.22 92.3 171.86 89.55 174.16 73.87Z" fill="#28C86E"/>
<path d="M188.73 92.1C188.73 92.1 182.06 102.1 172.49 95.3C172.49 95.3 176.16 91.25 188.73 92.1Z" fill="#28C86E"/>
<path d="M168.48 103.85C168.53 102.68 171.46 88.01 193.45 82.76" stroke="#28C86E" stroke-width="2.937" stroke-miterlimit="10" stroke-linecap="round"/>
<path d="M198.09 78.78C198.09 78.78 197.18 66.51 192.05 66.87C186.91 67.23 194.67 79.41 198.09 78.78Z" fill="#FFCF8D"/>
<path d="M198.09 78.62C198.09 78.62 189.29 68.41 187.09 73.01C184.9 77.62 196.92 82.02 198.09 78.62Z" fill="#FFCF8D"/>
<path d="M198.97 80.7C198.97 80.7 188.03 73.79 187.73 79.36C187.43 84.92 199.12 84.62 198.97 80.7Z" fill="#FFCF8D"/>
<path d="M200.2 81.01C200.2 81.01 206.63 69.78 201.05 69.72C195.48 69.65 196.28 81.33 200.2 81.01Z" fill="#FFCF8D"/>
<path d="M198.52 81.33C198.52 81.33 208.11 90.02 209.36 84.59C210.62 79.16 199.05 77.44 198.52 81.33Z" fill="#FFCF8D"/>
<path d="M198.38 82.55C198.38 82.55 208.6 80.01 206.01 76.56C203.41 73.1 196.32 80.33 198.38 82.55Z" fill="#FFCF8D"/>
<path d="M199.07 81.93C199.07 81.93 210.38 86.77 208.37 91.51C206.36 96.25 197.37 84.95 199.07 81.93Z" fill="#FFCF8D"/>
<path d="M199.67 81.22C199.67 81.22 206.47 92.86 201.4 93.44C196.33 94.02 196.08 81.23 199.67 81.22Z" fill="#FFCF8D"/>
<path d="M199.82 80.42C199.82 80.42 197.45 93.14 193.16 89.58C188.88 86.02 197.05 77.64 199.82 80.42Z" fill="#FFCF8D"/>
<path d="M202.993 86.6377C204.355 85.6651 203.549 82.2023 201.193 78.9033C198.836 75.6044 195.823 73.7185 194.461 74.6911C193.099 75.6637 193.905 79.1265 196.261 82.4254C198.617 85.7244 201.631 87.6103 202.993 86.6377Z" fill="#FF9F1A"/>
</g>
<defs>
<clipPath id="clip0_350_1778">
<rect width="323.48" height="296.57" fill="white"/>
</clipPath>
</defs>
</svg>
