<svg width="566" height="581" viewBox="0 0 566 581" fill="none" xmlns="http://www.w3.org/2000/svg">
<path d="M563.219 320.592C560.244 521.482 524.602 517.043 455.278 544.716C331.52 594.117 -6.21208 652.084 0.0869315 275.043C2.36158 138.887 -1.85527 54.5373 75.1152 21.8574C167.466 -17.3545 349.542 10.1623 435.909 9.37997C594.206 7.9523 563.971 269.607 563.219 320.592Z" fill="white"/>
<path d="M293.823 539.81C366.658 539.81 425.703 529.574 425.703 516.947C425.703 504.32 366.658 494.084 293.823 494.084C220.988 494.084 161.943 504.32 161.943 516.947C161.943 529.574 220.988 539.81 293.823 539.81Z" fill="#E9E2DE"/>
<path d="M398.198 321.088C394.409 325.61 379.394 312.209 373.034 295.405C362.173 269.36 357.931 196.744 417.67 175.356C460.47 160.034 397.084 321.504 398.198 321.088Z" fill="#F5D0C0"/>
<path d="M181.653 306.681C186.229 309.401 197.854 314.681 210.437 292.902C210.818 264.696 212.678 182.573 156.785 185.568C116.75 187.7 182.713 306.639 181.653 306.681Z" fill="#F5D0C0"/>
<path d="M412.169 274.473C412.169 274.473 317.502 303.003 278.649 242.156C278.649 242.156 335.752 208.63 412.169 274.473Z" fill="#D64204"/>
<path d="M365.391 222.992C365.391 222.992 333.529 268.881 265.44 248.201C265.44 248.201 274.123 225.99 365.391 222.992Z" fill="#F0A282"/>
<path d="M230.228 249.394C202.635 262.224 160.416 298.765 165.248 371.636C166.537 391.187 169.372 425.745 181.324 446.296C193.276 466.831 176.427 486.85 182.758 506.289C193.598 539.541 221.562 487.366 308.449 480.274C360.526 476.018 393.209 508.271 395.126 471.602C395.851 457.869 372.575 453.63 379.952 431.854C389.118 404.824 405.709 416.526 407.932 374.698C415.374 234.581 283.014 224.862 230.228 249.394Z" fill="#FCECE6"/>
<path d="M252.538 326.504C252.538 331.259 248.688 322.233 243.92 322.233C239.152 322.233 235.302 331.259 235.302 326.504C235.302 321.749 239.152 317.881 243.92 317.881C248.688 317.881 252.538 321.733 252.538 326.504Z" fill="black"/>
<path d="M323.493 326.504C323.493 331.259 319.644 322.233 314.876 322.233C310.108 322.233 306.258 331.259 306.258 326.504C306.258 321.749 310.108 317.881 314.876 317.881C319.644 317.881 323.493 321.733 323.493 326.504Z" fill="black"/>
<path d="M296.175 345.491C296.175 347.845 289.538 360.9 280.018 360.9C270.499 360.9 261.671 347.845 261.671 345.491C261.671 343.138 269.403 345.121 278.923 345.121C288.443 345.137 296.175 343.154 296.175 345.491Z" fill="black"/>
<path d="M280.679 348.714H276.78C276.201 348.714 275.733 348.247 275.733 347.666V345.039H281.709V347.666C281.726 348.247 281.258 348.714 280.679 348.714Z" fill="white"/>
<rect width="317.702" height="158.952" rx="20" transform="matrix(0.998628 -0.0523694 0.0523025 0.998631 128.084 67.0977)" fill="#F4F1EF"/>
<path d="M233.701 159.243L233.049 146.78L199.974 148.515L199.462 138.736L228.557 92.2206L242.458 91.4917L244.762 135.495L253.582 135.033L254.14 145.674L245.32 146.137L245.973 158.6L233.701 159.243ZM212.551 137.185L233.258 136.099L231.662 105.612L212.551 137.185ZM292.014 157.339C285.814 157.664 280.434 156.504 275.874 153.859C271.31 151.151 267.678 147.271 264.978 142.222C262.339 137.105 260.838 131.095 260.477 124.193C260.119 117.354 260.985 111.253 263.075 105.888C265.229 100.52 268.436 96.2818 272.695 93.1745C276.951 90.0032 282.179 88.255 288.378 87.9299C294.578 87.6048 299.96 88.7966 304.523 91.5053C309.084 94.1501 312.684 98.0309 315.323 103.148C318.026 108.261 319.557 114.237 319.915 121.076C320.277 127.978 319.38 134.114 317.226 139.482C315.133 144.783 311.958 149.019 307.702 152.19C303.442 155.297 298.213 157.014 292.014 157.339ZM291.436 146.314C296.485 146.049 300.497 143.724 303.472 139.338C306.446 134.952 307.741 129.084 307.356 121.734C306.971 114.385 305.071 108.684 301.654 104.634C298.238 100.583 294.005 98.69 288.956 98.9548C283.843 99.223 279.799 101.55 276.824 105.936C273.914 110.318 272.651 116.184 273.036 123.534C273.421 130.884 275.289 136.586 278.642 140.64C282.058 144.691 286.323 146.582 291.436 146.314ZM363.18 152.453L362.527 139.99L329.452 141.725L328.94 131.946L358.035 85.4306L371.936 84.7016L374.241 128.705L383.061 128.243L383.618 138.884L374.798 139.347L375.451 151.81L363.18 152.453ZM342.029 130.395L362.737 129.309L361.14 98.8224L342.029 130.395Z" fill="#D64204"/>
<path d="M178.601 204.236L177.137 176.275L180.492 176.099L181.957 204.06L178.601 204.236ZM207.39 203.207C205.499 203.307 203.772 202.97 202.21 202.197C200.672 201.397 199.424 200.247 198.464 198.749C197.53 197.222 197.008 195.42 196.899 193.343C196.79 191.266 197.122 189.433 197.893 187.844C198.689 186.226 199.811 184.953 201.258 184.022C202.73 183.064 204.411 182.535 206.302 182.436C208.645 182.313 210.648 182.822 212.31 183.963C213.998 185.103 215.109 186.687 215.643 188.715L212.208 188.895C211.877 187.684 211.175 186.773 210.102 186.162C209.027 185.524 207.797 185.241 206.412 185.314C205.294 185.373 204.257 185.707 203.301 186.318C202.345 186.929 201.59 187.81 201.036 188.961C200.482 190.111 200.248 191.512 200.335 193.163C200.421 194.814 200.8 196.183 201.471 197.269C202.142 198.356 202.985 199.166 204.001 199.7C205.016 200.208 206.083 200.432 207.201 200.373C208.586 200.301 209.78 199.904 210.784 199.184C211.786 198.437 212.388 197.431 212.588 196.165L216.024 195.985C215.729 198.004 214.802 199.681 213.243 201.018C211.684 202.355 209.733 203.085 207.39 203.207ZM227.654 202.145C226.003 202.231 224.617 202.024 223.496 201.522C222.375 201.02 221.524 200.317 220.942 199.412C220.361 198.508 220.041 197.51 219.984 196.419C219.878 194.395 220.569 192.796 222.056 191.623C223.544 190.451 225.619 189.794 228.282 189.655L233.634 189.374L233.622 189.134C233.531 187.403 233.01 186.122 232.059 185.291C231.106 184.433 229.871 184.044 228.353 184.123C227.048 184.192 225.933 184.584 225.01 185.3C224.111 185.988 223.575 186.964 223.401 188.228L219.965 188.409C220.023 186.963 220.439 185.727 221.213 184.698C222.013 183.668 223.026 182.867 224.251 182.296C225.475 181.697 226.793 181.361 228.204 181.287C230.974 181.142 233.09 181.779 234.553 183.197C236.041 184.588 236.849 186.508 236.977 188.958L237.615 201.142L234.619 201.299L234.234 197.754C233.733 198.902 232.958 199.904 231.908 200.76C230.883 201.588 229.465 202.05 227.654 202.145ZM228.025 199.281C229.303 199.214 230.378 198.824 231.248 198.111C232.145 197.396 232.806 196.494 233.229 195.403C233.653 194.313 233.834 193.182 233.773 192.01L233.77 191.97L228.697 192.236C226.727 192.34 225.347 192.759 224.558 193.495C223.794 194.203 223.438 195.062 223.491 196.074C223.545 197.113 223.962 197.932 224.741 198.532C225.546 199.104 226.64 199.354 228.025 199.281ZM242.649 200.878L241.611 181.065L244.647 180.906L245.033 184.45C245.607 183.165 246.474 182.132 247.635 181.35C248.795 180.568 250.135 180.137 251.652 180.058C253.996 179.935 255.898 180.556 257.358 181.921C258.843 183.259 259.663 185.405 259.818 188.361L260.425 199.946L257.069 200.121L256.481 188.897C256.265 184.769 254.453 182.795 251.044 182.973C249.34 183.063 247.948 183.763 246.868 185.075C245.814 186.359 245.347 188.146 245.467 190.436L246.004 200.702L242.649 200.878ZM263.072 180.7L264.923 171.671L268.677 171.474L265.469 180.575L263.072 180.7ZM281.841 198.822C280.031 198.917 278.583 198.553 277.498 197.728C276.414 196.904 275.811 195.347 275.691 193.057L275.12 182.151L271.685 182.332L271.537 179.496L274.972 179.315L275.162 174.539L278.078 174.386L278.327 179.139L284.159 178.834L284.308 181.67L278.476 181.976L279.047 192.881C279.112 194.132 279.41 194.971 279.94 195.397C280.468 195.797 281.371 195.963 282.65 195.896L284.727 195.787L284.877 198.663L281.841 198.822ZM301.11 197.812L300.221 180.835L297.225 180.992L297.076 178.156L300.072 177.999L299.892 174.564C299.792 172.646 300.198 171.223 301.11 170.294C302.023 169.365 303.398 168.852 305.236 168.756L307.233 168.651L307.384 171.527L305.906 171.605C304.894 171.658 304.186 171.909 303.782 172.357C303.377 172.779 303.2 173.482 303.252 174.468L303.427 177.823L315.73 177.178L316.768 196.991L313.413 197.167L312.524 180.19L303.576 180.659L304.465 197.636L301.11 197.812ZM313.894 173.469C313.255 173.503 312.698 173.318 312.223 172.916C311.746 172.487 311.491 171.939 311.456 171.274C311.422 170.635 311.621 170.09 312.051 169.64C312.482 169.19 313.016 168.949 313.655 168.915C314.321 168.88 314.878 169.065 315.327 169.469C315.802 169.871 316.056 170.392 316.089 171.031C316.124 171.696 315.927 172.268 315.498 172.744C315.094 173.192 314.56 173.434 313.894 173.469ZM322.695 196.68L321.658 176.867L324.693 176.708L325.079 180.253C325.653 178.967 326.52 177.934 327.681 177.152C328.841 176.37 330.181 175.939 331.699 175.86C334.042 175.737 335.944 176.358 337.404 177.724C338.889 179.061 339.709 181.208 339.864 184.164L340.471 195.748L337.116 195.924L336.528 184.699C336.311 180.571 334.499 178.597 331.09 178.776C329.386 178.865 327.994 179.566 326.915 180.877C325.86 182.161 325.393 183.948 325.513 186.238L326.051 196.504L322.695 196.68ZM354.567 195.489C352.597 195.593 350.842 195.231 349.303 194.403C347.791 193.575 346.581 192.397 345.673 190.869C344.792 189.339 344.299 187.576 344.195 185.579C344.09 183.582 344.41 181.789 345.155 180.201C345.898 178.587 346.979 177.302 348.398 176.346C349.815 175.364 351.522 174.82 353.519 174.716C355.144 174.63 356.599 174.888 357.886 175.488C359.172 176.088 360.193 176.969 360.948 178.131L360.306 165.868L363.661 165.692L365.168 194.453L362.132 194.612L361.641 191.353C361.052 192.345 360.178 193.259 359.02 194.094C357.863 194.929 356.378 195.394 354.567 195.489ZM354.774 192.554C356.106 192.485 357.261 192.117 358.241 191.451C359.246 190.758 359.999 189.837 360.5 188.689C361.027 187.54 361.252 186.22 361.174 184.728C361.095 183.237 360.734 181.948 360.09 180.86C359.472 179.771 358.628 178.947 357.557 178.389C356.512 177.803 355.323 177.545 353.992 177.615C352.687 177.683 351.532 178.064 350.527 178.758C349.547 179.423 348.793 180.331 348.266 181.48C347.765 182.628 347.554 183.947 347.632 185.439C347.71 186.93 348.058 188.22 348.676 189.309C349.32 190.397 350.165 191.234 351.211 191.82C352.281 192.378 353.469 192.623 354.774 192.554ZM381.978 169.298C381.312 169.333 380.742 169.149 380.267 168.747C379.817 168.316 379.575 167.768 379.54 167.102C379.506 166.463 379.692 165.92 380.095 165.471C380.526 165.021 381.074 164.779 381.74 164.744C382.379 164.71 382.936 164.895 383.411 165.297C383.886 165.7 384.14 166.22 384.174 166.859C384.208 167.525 384.011 168.096 383.582 168.573C383.152 169.023 382.617 169.264 381.978 169.298ZM381.568 193.593L380.531 173.78L383.886 173.604L384.924 193.417L381.568 193.593ZM398.595 192.7C396.784 192.795 395.337 192.43 394.252 191.606C393.167 190.781 392.565 189.224 392.445 186.934L391.874 176.029L388.439 176.209L388.29 173.373L391.725 173.193L391.916 168.416L394.832 168.263L395.081 173.017L400.913 172.711L401.061 175.547L395.229 175.853L395.801 186.758C395.866 188.009 396.164 188.848 396.693 189.275C397.222 189.674 398.125 189.84 399.403 189.773L401.48 189.664L401.631 192.54L398.595 192.7ZM406.527 184.513L405.068 164.322L408.703 164.131L409.363 184.364L406.527 184.513ZM408.461 192.383C407.795 192.417 407.225 192.234 406.75 191.831C406.3 191.401 406.058 190.866 406.025 190.227C405.991 189.588 406.176 189.044 406.58 188.596C407.009 188.119 407.557 187.864 408.222 187.829C408.861 187.795 409.406 187.994 409.856 188.424C410.331 188.826 410.585 189.347 410.618 189.986C410.652 190.625 410.454 191.183 410.025 191.66C409.621 192.108 409.1 192.349 408.461 192.383Z" fill="#D64204"/>
</svg>
