<svg width="566" height="581" viewBox="0 0 566 581" fill="none" xmlns="http://www.w3.org/2000/svg">
<path d="M563.219 320.592C560.244 521.482 524.602 517.043 455.278 544.716C331.52 594.117 -6.21208 652.084 0.0869315 275.043C2.36158 138.887 -1.85527 54.5373 75.1152 21.8574C167.466 -17.3545 349.542 10.1623 435.909 9.37997C594.206 7.9523 563.971 269.607 563.219 320.592Z" fill="white"/>
<path d="M390.971 220.469C390.971 220.469 318.122 231.284 275.446 179.729C275.446 179.729 336.142 163.209 390.971 220.469Z" fill="#D64204"/>
<path d="M353.639 183.509C353.639 183.509 328.948 198.034 263.991 186.799C263.991 186.834 288.193 149.349 353.639 183.509Z" fill="#F0A282"/>
<path d="M230.535 187.184C204.971 199.084 165.857 232.999 170.328 300.619C171.515 318.749 176.404 346.259 187.475 365.299C198.545 384.374 181.887 399.144 184.856 417.904C187.789 436.559 214.575 427.984 295.038 421.404C343.267 417.449 372.881 441.179 378.818 418.499C384.476 396.694 369.634 391.969 376.479 371.739C384.965 346.644 393.137 342.234 395.197 303.419C402.042 173.429 279.427 164.434 230.535 187.184Z" fill="#FCECE6"/>
<path d="M251.174 249.519C251.174 253.929 247.612 255.994 243.212 255.994C238.812 255.994 235.25 253.929 235.25 249.519C235.25 245.109 238.812 241.539 243.212 241.539C247.612 241.539 251.174 245.109 251.174 249.519Z" fill="black"/>
<path d="M316.934 249.519C316.934 253.929 313.372 255.994 308.972 255.994C304.571 255.994 301.009 253.929 301.009 249.519C301.009 245.109 304.571 241.539 308.972 241.539C313.372 241.504 316.934 245.109 316.934 249.519Z" fill="black"/>
<path d="M351.473 218.264C363.661 231.704 389.539 262.609 390.028 268.419C390.517 274.229 346.2 273.179 324.512 257.359C312.988 248.959 303.908 235.764 300.66 215.604C296.888 192.154 310.788 193.239 323.674 198.489C334.326 202.794 343.72 209.724 351.473 218.264Z" fill="#F5D0C0"/>
<path d="M259.032 157.014C259.032 157.014 257.461 170.384 269.684 178.119C269.684 178.119 271.395 172.764 259.032 157.014Z" fill="#28C86E"/>
<path d="M277.576 188.093C271.814 181.968 264.305 163.313 237.624 169.123" stroke="#28C86E" stroke-width="1.4305" stroke-miterlimit="10" stroke-linecap="round"/>
<path d="M231.687 166.708C231.687 166.708 220.477 182.213 228.334 181.968C236.192 181.688 237.275 166.008 231.687 166.708Z" fill="#FFCF8D"/>
<path d="M234.236 164.012C234.236 164.012 228.439 182.772 236.437 179.202C244.399 175.632 239.719 161.037 234.236 164.012Z" fill="#FFCF8D"/>
<path d="M235.074 163.209C235.074 163.209 217.403 168.004 222.153 174.304C226.902 180.639 238.811 167.269 235.074 163.209Z" fill="#FFCF8D"/>
<path d="M237.555 171.993C237.555 171.993 238.148 149.418 230.5 156.103C222.852 162.788 232.456 177.173 237.555 171.993Z" fill="#FFCF8D"/>
<path d="M233.293 165.658C233.293 165.658 235.179 150.608 241.361 154.948C247.542 159.288 237.379 169.053 233.293 165.658Z" fill="#FFCF8D"/>
<path d="M233.713 161.389C233.713 161.389 252.187 162.404 246.215 169.124C240.243 175.844 229.138 165.834 233.713 161.389Z" fill="#FFCF8D"/>
<path d="M237.977 168.179C240.178 164.23 240.052 159.959 237.695 158.639C235.338 157.319 231.642 159.45 229.44 163.399C227.239 167.347 227.365 171.619 229.722 172.939C232.08 174.259 235.775 172.128 237.977 168.179Z" fill="#FF9F1A"/>
<path d="M241.78 198.209C229.347 200.449 217.997 206.574 208.917 215.359C194.948 228.939 177.836 255.119 176.893 259.599C175.531 266.004 239.545 274.614 260.848 219.734C269.474 197.544 255.505 195.759 241.78 198.209Z" fill="#F5D0C0"/>
<path d="M282.989 281.053C282.989 284.658 279.253 281.193 275.656 281.193C272.059 281.193 266.855 284.763 266.855 281.158C266.855 277.553 272.128 271.533 275.725 271.533C279.183 271.533 282.989 273.213 282.989 281.053Z" fill="black"/>
<path d="M277.366 276.888H275.376C274.398 276.888 273.595 276.083 273.595 275.103L273.839 271.988C274.852 271.218 277.716 271.463 279.217 272.268L279.147 275.103C279.147 276.083 278.344 276.888 277.366 276.888Z" fill="white"/>
</svg>
