<svg width="566" height="581" viewBox="0 0 566 581" fill="none" xmlns="http://www.w3.org/2000/svg">
<path d="M563.219 320.592C560.244 521.482 524.602 517.043 455.278 544.716C331.52 594.117 -6.21208 652.084 0.0869315 275.043C2.36158 138.887 -1.85527 54.5373 75.1152 21.8574C167.466 -17.3545 349.542 10.1623 435.909 9.37997C594.206 7.9523 563.971 269.607 563.219 320.592Z" fill="white"/>
<path d="M466.899 357.312C484.462 481.454 325.628 492.984 213.347 457.526C126.811 430.197 105.132 434.159 100.351 364.214C93.653 266.122 139.644 233.22 182.516 217.677C300.728 174.856 398.232 203.565 418.07 229.667C459.434 284.12 457.056 287.852 466.899 357.312Z" fill="#FCECE6"/>
<path d="M339.151 164.227C339.177 161.977 341.324 125.036 383.839 108.266" stroke="#E1E8E4" stroke-width="2.8421" stroke-miterlimit="10" stroke-linecap="round"/>
<path d="M234.719 334.789C242.019 334.789 247.936 328.872 247.936 321.572C247.936 314.273 242.019 308.355 234.719 308.355C227.42 308.355 221.502 314.273 221.502 321.572C221.502 328.872 227.42 334.789 234.719 334.789Z" fill="black"/>
<path d="M343.701 334.789C351.001 334.789 356.918 328.872 356.918 321.572C356.918 314.273 351.001 308.355 343.701 308.355C336.402 308.355 330.484 314.273 330.484 321.572C330.484 328.872 336.402 334.789 343.701 334.789Z" fill="black"/>
<path d="M298.401 350.713C298.401 354.318 296.254 350.688 291.166 350.688C286.079 350.688 279.995 354.318 279.995 350.713C279.995 347.109 284.111 345.498 289.198 345.498C294.285 345.498 298.401 347.109 298.401 350.713Z" fill="black"/>
<path d="M387.979 105.271C387.979 105.271 381.409 75.0539 368.755 77.7637C356.1 80.4736 379.696 108.058 387.979 105.271Z" fill="#FFCF8D"/>
<path d="M386.957 103.304C386.957 103.304 357.89 85.8942 356.279 98.6255C354.694 111.331 386.829 112.328 386.957 103.304Z" fill="#FFCF8D"/>
<path d="M390.792 107.699C390.792 107.699 410.297 81.6998 396.441 79.808C382.56 77.9418 380.949 107.29 390.792 107.699Z" fill="#FFCF8D"/>
<path d="M388.338 106.579C388.338 106.579 416.126 123.452 416.638 109.468C417.149 95.4581 387.775 96.7108 388.338 106.579Z" fill="#FFCF8D"/>
<path d="M389.974 107.775C389.974 107.775 420.191 114.346 417.482 127C414.772 139.655 387.187 116.033 389.974 107.775Z" fill="#FFCF8D"/>
<path d="M391.098 105.732C391.098 105.732 413.416 131.221 401.196 135.081C388.977 138.916 382.253 107.471 391.098 105.732Z" fill="#FFCF8D"/>
<path d="M391.099 103.685C391.099 103.685 391.303 136.204 379.032 129.455C366.761 122.706 382.944 98.1634 391.099 103.685Z" fill="#FFCF8D"/>
<path d="M399.011 117.225C401.356 114.76 399.052 108.762 393.865 103.829C388.678 98.8963 382.572 96.8962 380.228 99.3618C377.883 101.827 380.187 107.825 385.374 112.758C390.561 117.691 396.666 119.691 399.011 117.225Z" fill="#FF9F1A"/>
<path d="M468.765 224.679C458.028 211.206 379.621 209.954 379.135 200.648C379.646 163.272 384.785 129.859 345.313 110.302C335.189 104.627 318.597 91.2565 305.534 80.1869C294.209 70.6257 277.643 70.6001 266.317 80.1358C253.177 91.2053 236.458 104.601 226.334 110.302C186.862 129.834 191.975 163.247 192.512 200.648C192.026 209.979 113.593 211.206 102.882 224.679C75.6297 256.533 495.966 256.533 468.765 224.679Z" fill="#D64204"/>
<path d="M309.574 108.87C309.242 107.362 309.063 106.697 308.935 106.007C308.424 103.45 309.421 101.635 311.9 101.022C314.252 100.434 315.837 101.686 316.681 103.91C317.857 107.029 318.777 110.225 320.234 113.216C327.444 128.044 338.232 133.566 354.389 130.805C357.099 130.344 359.272 130.805 360.141 133.668C360.882 136.096 359.17 138.167 356.025 138.909C337.209 143.306 319.825 133.847 311.798 114.827C310.878 112.602 310.111 110.327 309.574 108.87Z" fill="white"/>
<path d="M259.901 108.87C260.233 107.362 260.412 106.697 260.54 106.007C261.051 103.45 260.054 101.635 257.575 101.022C255.223 100.434 253.638 101.686 252.794 103.91C251.618 107.029 250.698 110.225 249.24 113.216C242.031 128.044 231.243 133.566 215.086 130.805C212.376 130.344 210.203 130.805 209.334 133.668C208.592 136.096 210.305 138.167 213.45 138.909C232.265 143.306 249.649 133.847 257.677 114.827C258.572 112.602 259.338 110.327 259.901 108.87Z" fill="white"/>
<path d="M379.851 200.881C379.851 192.828 379.953 184.775 379.953 176.748C375.812 186.616 198.188 187.511 192.282 176.978C192.257 184.878 192.206 192.752 192.18 200.651C192.155 212.922 379.826 213.152 379.851 200.881Z" fill="white"/>
<path d="M175.102 294.727C155.519 315.204 114.181 344.859 101.68 365.03C94.7009 337.292 90.227 286.7 112.647 250.346C124.561 231.02 144.066 215.732 174.795 210.005C210.484 203.358 210.049 226.571 203.121 248.071C197.369 265.915 187.552 281.689 175.102 294.727Z" fill="#F5D0C0"/>
<path d="M350.12 361.604C370.705 361.604 387.393 344.916 387.393 324.33C387.393 303.745 370.705 287.057 350.12 287.057C329.534 287.057 312.846 303.745 312.846 324.33C312.846 344.916 329.534 361.604 350.12 361.604Z" fill="#646464"/>
<path d="M366.531 321.466C365.918 322.821 366.915 324.381 368.397 324.381H370.852C372.385 324.381 373.383 325.991 372.692 327.372L355.794 361.143C360.063 360.478 364.103 359.149 367.784 357.18L384.145 323.691C384.81 322.336 383.813 320.725 382.305 320.725H378.726C377.192 320.725 376.195 319.114 376.885 317.76L382.663 306.23C381.103 303.443 379.186 300.861 376.987 298.586L366.531 321.466Z" fill="white"/>
<path d="M229.351 361.604C249.937 361.604 266.625 344.916 266.625 324.33C266.625 303.745 249.937 287.057 229.351 287.057C208.766 287.057 192.078 303.745 192.078 324.33C192.078 344.916 208.766 361.604 229.351 361.604Z" fill="#646464"/>
<path d="M239.91 310.498H236.331C234.797 310.498 233.8 308.888 234.49 307.507L243.335 289.816C240.677 288.743 237.865 287.976 234.925 287.541L224.111 311.265C223.497 312.62 224.494 314.18 225.977 314.18H228.431C229.965 314.18 230.962 315.79 230.272 317.171L210.587 356.54C213.195 358.049 215.981 359.276 218.947 360.145L241.75 313.515C242.415 312.083 241.444 310.498 239.91 310.498Z" fill="white"/>
<path d="M324.861 325.837C299.756 317.043 285.363 316.915 260.08 325.326C252.819 322.488 249.214 321.082 241.954 318.219C274.677 306.817 310.519 306.536 343.395 317.477C335.981 320.826 332.274 322.514 324.861 325.837Z" fill="#646464"/>
<path d="M391.841 325.273H386.523C385.245 325.273 385.296 323.125 385.296 321.847L384.197 317.373C384.197 316.095 385.245 315.047 386.523 315.047H391.841C393.119 315.047 394.167 316.095 394.167 317.373V322.946C394.167 324.25 393.144 325.273 391.841 325.273Z" fill="#646464"/>
<path d="M188.089 325.273H193.407C194.685 325.273 194.634 323.125 194.634 321.847L195.733 317.373C195.733 316.095 194.685 315.047 193.407 315.047H188.089C186.811 315.047 185.763 316.095 185.763 317.373V322.946C185.763 324.25 186.811 325.273 188.089 325.273Z" fill="#646464"/>
</svg>
