<?xml version="1.0" encoding="UTF-8"?>
<svg width="1902px" height="500px" viewBox="0 0 1902 500" version="1.1" xmlns="http://www.w3.org/2000/svg" xmlns:xlink="http://www.w3.org/1999/xlink">
    <!-- Generator: Sketch 53.2 (72643) - https://sketchapp.com -->
    <title>06</title>
    <desc>Created with Sketch.</desc>
    <g id="LOGOS" stroke="none" stroke-width="1" fill="none" fill-rule="evenodd">
        <g id="02" transform="translate(-2809.000000, -874.000000)">
            <g id="06" transform="translate(2809.000000, 874.000000)">
                <circle id="bg_Circle" fill="#FFFFFF" fill-rule="nonzero" cx="1652" cy="250" r="250"></circle>
                <path d="M1523.32885,338.821151 L1523.32885,315.030957 C1523.32885,314.784893 1523.49305,314.620784 1523.86252,314.456725 C1524.23203,314.292665 1524.68357,314.169633 1525.21728,314.087579 C1525.75095,313.964546 1526.28467,313.882492 1526.81833,313.841465 C1527.35205,313.75946 1527.76257,313.75946 1528.04991,313.75946 C1528.54256,313.75946 1528.91203,313.923519 1529.19942,314.251638 C1529.48681,314.579806 1529.65101,314.948952 1529.65101,315.318098 L1529.65101,339.149319 C1529.65101,341.73339 1529.36362,343.907338 1528.78889,345.630085 C1528.21416,347.39381 1527.35205,348.788438 1526.16148,349.895925 C1525.01202,350.962336 1523.53411,351.741705 1521.76882,352.192905 C1520.00357,352.644056 1517.90987,352.89017 1515.52878,352.89017 L1515.11826,352.89017 C1512.77823,352.89017 1510.76666,352.644056 1509.00136,352.192905 C1507.27713,351.741705 1505.84028,350.962336 1504.64977,349.895925 C1503.50026,348.788438 1502.63814,347.39381 1502.06342,345.630085 C1501.48869,343.907338 1501.2013,341.73339 1501.2013,339.149319 L1501.2013,315.030957 C1501.2013,314.784893 1501.3655,314.620784 1501.73501,314.456725 C1502.10448,314.292665 1502.55607,314.169633 1503.04867,314.087579 C1503.58239,313.964546 1504.07499,313.882492 1504.64977,313.841465 C1505.18343,313.75946 1505.59396,313.75946 1505.92241,313.75946 C1506.33294,313.75946 1506.7024,313.923519 1507.0308,314.251638 C1507.35925,314.579806 1507.52346,314.948952 1507.52346,315.318098 L1507.52346,338.821151 C1507.52346,340.338811 1507.60558,341.610358 1507.85186,342.676818 C1508.09818,343.784305 1508.4677,344.645679 1509.08349,345.301917 C1509.65822,345.958204 1510.43821,346.450431 1511.42351,346.77855 C1512.40877,347.106718 1513.64035,347.270777 1515.11826,347.270777 L1515.52878,347.270777 C1517.04775,347.270777 1518.27934,347.106718 1519.30565,346.77855 C1520.29091,346.450431 1521.11196,345.958204 1521.68674,345.301917 C1522.30253,344.645679 1522.71306,343.784305 1522.95939,342.676818 C1523.20566,341.610358 1523.32885,340.338811 1523.32885,338.821151 Z M1562.81859,341.200185 L1562.81859,314.743866 C1562.81859,314.538779 1563.02385,314.37472 1563.39332,314.251638 C1563.80389,314.128606 1564.25543,314.046552 1564.78915,313.964546 C1565.28175,313.882492 1565.81547,313.841465 1566.3902,313.800438 C1566.92391,313.75946 1567.33444,313.75946 1567.66284,313.75946 C1568.56602,313.75946 1569.05867,314.292665 1569.05867,315.318098 L1569.05867,351.536618 C1569.05867,351.946791 1568.85341,352.27491 1568.52496,352.521024 C1568.19655,352.767138 1567.82704,352.89017 1567.45758,352.89017 C1567.17024,352.89017 1566.80072,352.89017 1566.30812,352.849192 C1565.85653,352.849192 1565.36388,352.808165 1564.91229,352.685083 C1564.41969,352.603078 1564.00916,352.521024 1563.59858,352.397992 C1563.22912,352.27491 1562.94178,352.110851 1562.81859,351.905764 L1545.69954,325.53145 L1545.69954,351.454564 C1545.69954,351.905764 1545.53529,352.233883 1545.20689,352.479997 C1544.87844,352.767138 1544.50897,352.89017 1544.09844,352.89017 C1543.77004,352.89017 1543.35951,352.849192 1542.8258,352.849192 C1542.25107,352.808165 1541.75842,352.767138 1541.26582,352.685083 C1540.77316,352.603078 1540.32157,352.479997 1539.95211,352.315937 C1539.58264,352.192905 1539.41839,351.987818 1539.41839,351.782732 L1539.41839,314.866898 C1539.41839,314.661811 1539.58264,314.456725 1539.95211,314.292665 C1540.32157,314.128606 1540.77316,314.046552 1541.26582,313.964546 C1541.75842,313.882492 1542.25107,313.841465 1542.78474,313.800438 C1543.31845,313.75946 1543.72898,313.75946 1544.05738,313.75946 C1544.42689,313.75946 1544.7553,313.882492 1545.04269,314.087579 C1545.28901,314.333692 1545.49427,314.579806 1545.69954,314.866898 L1562.81859,341.200185 Z M1585.96907,351.454564 C1585.96907,351.905764 1585.84594,352.233883 1585.51748,352.479997 C1585.18908,352.767138 1584.81962,352.89017 1584.36803,352.89017 C1584.03958,352.89017 1583.62905,352.849192 1583.09538,352.849192 C1582.56167,352.808165 1582.028,352.767138 1581.53535,352.685083 C1581.04275,352.603078 1580.59116,352.479997 1580.22169,352.315937 C1579.85218,352.192905 1579.64692,351.987818 1579.64692,351.782732 L1579.64692,314.866898 C1579.64692,314.661811 1579.85218,314.456725 1580.22169,314.292665 C1580.59116,314.128606 1581.04275,314.046552 1581.53535,313.964546 C1582.028,313.882492 1582.56167,313.841465 1583.09538,313.800438 C1583.62905,313.75946 1584.03958,313.75946 1584.36803,313.75946 C1584.81962,313.75946 1585.18908,313.882492 1585.51748,314.169633 C1585.84594,314.456725 1585.96907,314.784893 1585.96907,315.195066 L1585.96907,351.454564 Z M1609.55282,342.143563 L1617.51709,314.866898 C1618.00974,314.37472 1618.58447,314.046552 1619.24132,313.923519 C1619.89818,313.800438 1620.63711,313.75946 1621.49922,313.75946 C1621.82767,313.75946 1622.19714,313.75946 1622.5666,313.800438 C1622.93607,313.841465 1623.26452,313.923519 1623.51085,314.046552 C1623.79819,314.169633 1623.96244,314.333692 1624.08557,314.579806 C1624.20871,314.784893 1624.20871,315.113012 1624.08557,315.564212 L1611.89285,352.028796 C1611.81072,352.315937 1611.64652,352.521024 1611.31812,352.685083 C1611.03073,352.808165 1610.74334,352.89017 1610.41494,352.89017 C1609.26544,352.89017 1608.28018,352.808165 1607.50019,352.685083 C1606.67913,352.562051 1606.22754,352.397992 1606.02228,352.110851 L1593.78849,315.564212 C1593.70637,315.195066 1593.70637,314.907925 1593.78849,314.661811 C1593.91163,314.456725 1594.07588,314.251638 1594.28115,314.128606 C1594.48641,313.964546 1594.73269,313.882492 1594.97901,313.841465 C1595.2664,313.75946 1595.47166,313.75946 1595.63587,313.75946 C1596.16958,313.75946 1596.70325,313.75946 1597.27797,313.800438 C1597.81169,313.841465 1598.30429,313.882492 1598.75588,314.005524 C1599.20747,314.087579 1599.618,314.210611 1599.94645,314.37472 C1600.23379,314.579806 1600.43905,314.784893 1600.56224,315.071985 L1608.69071,342.143563 C1608.8139,342.553737 1608.89597,343.004937 1608.9781,343.497164 C1609.01916,343.948365 1609.06017,344.399565 1609.1423,344.768711 C1609.18336,344.399565 1609.22442,343.948365 1609.26544,343.497164 C1609.34756,343.004937 1609.42969,342.553737 1609.55282,342.143563 Z M1631.944,350.634217 L1631.944,315.113012 C1631.944,314.661811 1632.1082,314.333692 1632.39554,314.087579 C1632.72399,313.882492 1633.09345,313.75946 1633.54504,313.75946 L1654.68729,313.75946 C1655.09786,313.75946 1655.42627,313.923519 1655.67259,314.21066 C1655.95993,314.538779 1656.08312,314.907925 1656.08312,315.27712 C1656.08312,315.564212 1656.04206,315.933358 1656.04206,316.425586 C1656.00099,316.876786 1655.91892,317.369013 1655.87786,317.779187 C1655.79573,318.230338 1655.67259,318.599533 1655.54941,318.927652 C1655.42627,319.25582 1655.221,319.378852 1655.01574,319.378852 L1638.26615,319.378852 L1638.26615,329.592204 L1652.71678,329.592204 C1653.04518,329.592204 1653.37363,329.756313 1653.61996,330.043405 C1653.9073,330.371573 1654.03048,330.699692 1654.03048,331.068838 C1654.03048,331.355979 1653.98942,331.725125 1653.94836,332.217352 C1653.94836,332.70958 1653.86623,333.160731 1653.82522,333.611931 C1653.7431,334.063132 1653.61996,334.473305 1653.49677,334.760446 C1653.33257,335.088565 1653.16837,335.252673 1652.9631,335.252673 L1638.26615,335.252673 L1638.26615,346.040258 L1654.68729,346.040258 C1655.09786,346.040258 1655.42627,346.204317 1655.67259,346.491458 C1655.95993,346.778599 1656.08312,347.147745 1656.08312,347.557918 C1656.08312,347.845059 1656.04206,348.214205 1656.04206,348.665406 C1656.00099,349.157584 1655.91892,349.608784 1655.87786,350.059985 C1655.79573,350.511185 1655.67259,350.880331 1655.54941,351.208499 C1655.42627,351.536618 1655.221,351.700678 1655.01574,351.700678 L1634.28397,351.700678 C1633.79137,351.700678 1633.29872,351.577645 1632.76505,351.331531 C1632.19027,351.126445 1631.944,350.880331 1631.944,350.634217 Z M1664.12681,351.208499 L1664.12681,315.113012 C1664.12681,314.743866 1664.29106,314.415747 1664.61947,314.169633 C1664.90685,313.882492 1665.31738,313.75946 1665.76892,313.75946 L1677.38692,313.75946 C1679.80907,313.75946 1681.8617,313.923519 1683.58594,314.292665 C1685.26911,314.620833 1686.66489,315.236093 1687.77333,316.138445 C1688.84071,316.999818 1689.62071,318.18936 1690.11336,319.624966 C1690.60596,321.101599 1690.85229,322.947379 1690.85229,325.203331 L1690.85229,326.351846 C1690.85229,327.992539 1690.72915,329.428145 1690.48282,330.658665 C1690.19543,331.889233 1689.78491,332.955644 1689.21018,333.817018 C1688.67651,334.719419 1687.93754,335.416733 1686.99334,335.949938 C1686.0491,336.442166 1684.94066,336.852339 1683.66801,337.13948 L1690.97548,349.772844 C1691.34494,350.470158 1691.5502,350.962385 1691.5502,351.331531 C1691.5502,351.536618 1691.46808,351.700678 1691.26282,351.823759 C1691.09861,351.987818 1690.89335,352.069824 1690.68809,352.151878 C1690.48282,352.233932 1690.27756,352.274959 1690.03123,352.274959 C1689.82597,352.315937 1689.66177,352.315937 1689.53858,352.315937 C1689.25124,352.315937 1688.84071,352.274959 1688.34806,352.274959 C1687.85541,352.233932 1687.36281,352.151878 1686.87016,352.069824 C1686.33649,351.987818 1685.8849,351.864737 1685.51544,351.700678 C1685.10491,351.495591 1684.81752,351.249477 1684.65332,350.962385 L1676.89432,337.713712 L1670.40791,337.713712 L1670.40791,350.962385 C1670.40791,351.372559 1670.24371,351.700678 1669.9153,351.946791 C1669.62792,352.192905 1669.25845,352.315937 1668.80686,352.315937 C1668.51947,352.315937 1668.06793,352.274959 1667.57528,352.274959 C1667.04157,352.233932 1666.5079,352.192905 1666.01525,352.110851 C1665.48158,352.028845 1665.07105,351.905764 1664.70159,351.741705 C1664.33208,351.618672 1664.12681,351.413586 1664.12681,351.208499 Z M1677.71537,319.378852 L1670.40791,319.378852 L1670.40791,332.09432 L1677.71537,332.09432 C1679.19328,332.09432 1680.34273,332.012266 1681.20485,331.848206 C1682.02591,331.684098 1682.72382,331.397006 1683.17541,330.986833 C1683.66801,330.576659 1683.99646,329.961399 1684.1196,329.264085 C1684.2838,328.525793 1684.36593,327.541338 1684.36593,326.351846 L1684.36593,325.203331 C1684.36593,324.013839 1684.2838,323.029433 1684.1196,322.250065 C1683.99646,321.511773 1683.66801,320.93754 1683.17541,320.48634 C1682.72382,320.076166 1682.02591,319.789026 1681.20485,319.624966 C1680.34273,319.460907 1679.19328,319.378852 1677.71537,319.378852 Z M1700.11086,346.409404 C1700.35719,346.491458 1700.80878,346.573463 1701.38351,346.737572 C1701.95824,346.860604 1702.61509,347.024664 1703.39513,347.147745 C1704.13406,347.270777 1704.95511,347.39381 1705.85829,347.516891 C1706.76147,347.639924 1707.6646,347.680951 1708.56778,347.680951 C1709.55304,347.680951 1710.49728,347.598896 1711.40046,347.434837 C1712.30359,347.270777 1713.08363,347.024664 1713.82256,346.655518 C1714.52048,346.286372 1715.05414,345.794144 1715.50573,345.178884 C1715.91626,344.563624 1716.12152,343.784305 1716.12152,342.881905 C1716.12152,341.610358 1715.711,340.543898 1714.88994,339.682524 C1714.06889,338.780123 1713.04257,337.959777 1711.76992,337.180458 C1710.53834,336.401138 1709.18357,335.62177 1707.70567,334.842451 C1706.26882,334.063132 1704.91405,333.160731 1703.64141,332.094271 C1702.40983,331.068838 1701.38351,329.838318 1700.56245,328.443739 C1699.70034,327.008084 1699.28981,325.285386 1699.28981,323.234471 C1699.28981,321.511773 1699.61826,320.076117 1700.23405,318.845598 C1700.84984,317.656105 1701.71196,316.712677 1702.77934,315.933358 C1703.88773,315.195066 1705.16038,314.620784 1706.67935,314.292665 C1708.19832,313.923519 1709.88149,313.75946 1711.6878,313.75946 C1712.09833,313.75946 1712.6731,313.75946 1713.4531,313.800438 C1714.23309,313.841465 1715.0952,313.882492 1715.95732,314.005524 C1716.8605,314.087579 1717.72262,314.210611 1718.58469,314.333692 C1719.4468,314.456725 1720.14472,314.661811 1720.63737,314.907925 C1721.12997,315.113012 1721.45842,315.359125 1721.5405,315.605239 C1721.66369,315.851353 1721.66369,316.261526 1721.62263,316.794732 C1721.5405,317.738159 1721.33524,318.476452 1721.00683,319.091711 C1720.71945,319.706971 1720.26786,319.953085 1719.69313,319.871031 C1718.83101,319.706971 1717.84576,319.501885 1716.69625,319.337825 C1715.58786,319.173766 1714.31521,319.050684 1712.91938,319.050684 C1710.74361,319.050684 1708.93725,319.378852 1707.58253,320.035139 C1706.22776,320.650399 1705.52989,321.716859 1705.52989,323.193493 C1705.52989,324.341958 1705.94042,325.326364 1706.76147,326.146759 C1707.58253,326.967106 1708.60885,327.787452 1709.88149,328.525744 C1711.11307,329.264085 1712.46784,330.043405 1713.94575,330.863751 C1715.38259,331.64307 1716.73731,332.586498 1718.00996,333.652958 C1719.24154,334.719419 1720.26786,335.990965 1721.08896,337.467599 C1721.95103,338.98521 1722.36155,340.790011 1722.36155,342.922932 C1722.36155,344.932771 1721.95103,346.573463 1721.2121,347.886037 C1720.47312,349.198611 1719.4468,350.224044 1718.21522,350.921358 C1716.94258,351.65965 1715.50573,352.192905 1713.90469,352.479997 C1712.26258,352.767138 1710.53834,352.89017 1708.81411,352.89017 C1707.99305,352.89017 1707.13094,352.849192 1706.26882,352.808165 C1705.4067,352.767138 1704.54459,352.685083 1703.68247,352.562051 C1702.82035,352.479997 1702.04036,352.356964 1701.30143,352.192905 C1700.52139,352.069824 1699.9056,351.905764 1699.37194,351.741705 C1698.83822,351.536618 1698.50982,351.372559 1698.42769,351.126445 C1698.30456,350.880331 1698.30456,350.511185 1698.34562,349.936903 C1698.46876,348.91147 1698.67402,348.050097 1698.92035,347.311805 C1699.20773,346.614491 1699.61826,346.286372 1700.11086,346.409404 Z M1736.82603,351.454564 C1736.82603,351.905764 1736.66183,352.233883 1736.37444,352.479997 C1736.04604,352.767138 1735.67658,352.89017 1735.22499,352.89017 C1734.89653,352.89017 1734.48601,352.849192 1733.95234,352.849192 C1733.41863,352.808165 1732.88496,352.767138 1732.39231,352.685083 C1731.85864,352.603078 1731.44812,352.479997 1731.07865,352.315937 C1730.70914,352.192905 1730.50387,351.987818 1730.50387,351.782732 L1730.50387,314.866898 C1730.50387,314.661811 1730.70914,314.456725 1731.07865,314.292665 C1731.44812,314.128606 1731.85864,314.046552 1732.39231,313.964546 C1732.88496,313.882492 1733.41863,313.841465 1733.95234,313.800438 C1734.48601,313.75946 1734.89653,313.75946 1735.22499,313.75946 C1735.67658,313.75946 1736.04604,313.882492 1736.37444,314.169633 C1736.66183,314.456725 1736.82603,314.784893 1736.82603,315.195066 L1736.82603,351.454564 Z M1761.9903,321.429571 L1761.9903,352.848996 C1761.9903,353.300196 1761.8261,353.628315 1761.49764,353.874429 C1761.16924,354.16157 1760.75872,354.284602 1760.34819,354.284602 C1760.01974,354.284602 1759.60921,354.243624 1759.07554,354.243624 C1758.50082,354.202597 1758.00816,354.16157 1757.51551,354.079515 C1757.02291,353.99751 1756.57132,353.874429 1756.20185,353.710369 C1755.83234,353.587337 1755.66814,353.38225 1755.66814,353.177164 L1755.66814,321.429571 L1745.97964,321.429571 C1745.56911,321.429571 1745.24071,321.265463 1744.99438,320.978371 C1744.707,320.650203 1744.58386,320.322084 1744.58386,319.870884 C1744.58386,319.62477 1744.62492,319.255624 1744.62492,318.763396 C1744.66593,318.312196 1744.74806,317.861045 1744.78912,317.409844 C1744.8712,316.958644 1744.99438,316.589498 1745.11752,316.26133 C1745.24071,315.933211 1745.44597,315.769152 1745.65124,315.769152 L1771.63773,315.769152 C1772.0072,315.769152 1772.33565,315.933211 1772.62304,316.220303 C1772.86932,316.507444 1772.9925,316.87659 1772.9925,317.32779 C1772.9925,317.573904 1772.9925,317.984077 1772.95144,318.435277 C1772.91038,318.927505 1772.86932,319.378656 1772.78724,319.788829 C1772.74618,320.24003 1772.62304,320.609225 1772.45879,320.937344 C1772.33565,321.265463 1772.17145,321.429571 1771.96619,321.429571 L1761.9903,321.429571 Z M1794.89212,338.36995 L1794.89212,351.454564 C1794.89212,351.905764 1794.72787,352.233883 1794.39947,352.479997 C1794.07107,352.767138 1793.70156,352.89017 1793.24997,352.89017 C1792.92156,352.89017 1792.51104,352.849192 1792.01838,352.849192 C1791.48472,352.808165 1790.99207,352.767138 1790.4584,352.685083 C1789.96575,352.603078 1789.51416,352.479997 1789.14469,352.315937 C1788.77523,352.192905 1788.61103,351.987818 1788.61103,351.782732 L1788.61103,338.36995 L1777.11617,315.974385 C1776.70564,315.195066 1776.66458,314.620784 1776.95197,314.292665 C1777.23936,313.923519 1777.77302,313.75946 1778.59408,313.75946 L1780.07198,313.75946 C1780.6057,313.800438 1781.05724,313.841465 1781.50883,313.923519 C1781.96042,313.964546 1782.32988,314.087579 1782.65834,314.169633 C1782.94568,314.292665 1783.192,314.415698 1783.27413,314.661811 L1791.73104,331.889184 L1800.1469,314.702839 C1800.27004,314.497752 1800.4753,314.333692 1800.80375,314.210611 C1801.09109,314.087579 1801.46056,313.964546 1801.91215,313.923519 C1802.36374,313.841465 1802.81533,313.800438 1803.34899,313.75946 L1804.8269,313.75946 C1805.648,313.75946 1806.18167,313.923519 1806.46906,314.251638 C1806.71534,314.579806 1806.63326,315.154039 1806.26379,315.974385 L1794.89212,338.36995 Z M1526.73625,225.897998 C1546.60586,225.897998 1552.76381,236.398491 1552.76381,263.100924 C1552.76381,289.762329 1546.60586,300.303849 1526.69519,300.303849 L1501.2013,300.303849 L1501.2013,225.897998 L1526.73625,225.897998 Z M1517.29271,287.177228 L1524.39486,287.177228 C1535.97179,287.177228 1537.4497,280.327267 1537.4497,262.566689 C1537.4497,244.765034 1535.97179,237.956149 1524.39486,237.956149 L1517.29271,237.956149 L1517.29271,287.177228 Z M1561.54408,225.897998 L1601.77594,225.897998 L1601.77594,238.490384 L1577.26735,238.490384 L1577.26735,254.405183 L1599.80543,254.405183 L1599.80543,267.366715 L1577.26735,267.366715 L1577.26735,287.178209 L1601.77594,287.178209 L1601.77594,300.303849 L1561.54408,300.303849 L1561.54408,225.897998 Z M1646.97156,283.773742 L1625.33666,283.773742 L1621.39559,300.303849 L1605.79546,300.303849 L1626.81456,225.897998 L1646.64315,225.897998 L1667.33381,300.303849 L1650.99475,300.303849 L1646.97156,283.773742 Z M1645.24531,270.729028 L1637.77365,239.965841 L1629.93257,270.729028 L1645.24531,270.729028 Z M1672.17252,225.897998 L1687.69052,225.897998 L1687.69052,258.219823 L1707.06752,225.897998 L1723.28344,225.897998 L1701.77168,260.10663 L1723.28344,300.303849 L1705.26121,300.303849 L1687.69052,264.126357 L1687.69052,300.303849 L1672.17252,300.303849 L1672.17252,225.897998 Z M1730.50387,225.897998 L1745.57034,225.897998 L1745.57034,300.303849 L1730.50387,300.303849 L1730.50387,225.897998 Z M1770.11778,251.616025 L1770.11778,300.344877 L1756.65241,300.344877 L1756.65241,225.897998 L1775.37256,225.897998 L1793.35373,271.71461 L1793.35373,225.897998 L1806.98335,225.897998 L1806.98335,300.344877 L1789.94637,300.344877 L1770.11778,251.616025 Z M1607.80688,95.2680272 L1699.31392,95.2680272 L1699.31392,157.778806 C1699.31392,183.045633 1678.82847,203.472337 1653.53984,203.472337 C1628.25126,203.472337 1607.80688,183.004606 1607.80688,157.778806 L1607.80688,95.2680272 Z M1615.23748,168.402332 L1626.93756,168.402332 L1621.10805,158.435093 L1615.23748,168.402332 Z M1634.36816,168.402332 L1643.19454,168.402332 L1629.35966,144.201965 L1624.80279,151.790219 L1634.36816,168.402332 Z M1650.78934,168.402332 L1659.3694,168.402332 L1637.48817,130.132946 L1632.97232,137.721199 L1650.78934,168.402332 Z M1667.08734,168.402332 L1675.33899,168.402332 L1645.4935,116.31004 L1641.14185,123.65218 L1667.08734,168.402332 Z M1683.05693,168.402332 L1691.67805,168.402332 L1653.62197,102.199994 L1649.18825,109.706242 L1683.05693,168.402332 Z" id="DEAKIN_Logo" fill="#000000" fill-rule="nonzero"></path>
                <path d="M557.631104,343.60812 L551.596497,325.123686 L531.141532,325.123686 L524.715068,343.999739 C524.558324,344.469684 524.153408,344.743815 523.500309,344.82214 C522.84721,344.900464 522.154935,344.939625 521.423464,344.939625 C521.057728,344.939625 520.744245,344.88741 520.483006,344.782978 C520.221766,344.678545 520.091148,344.443576 520.091148,344.078063 C520.091148,343.97363 520.10421,343.8692 520.130334,343.764767 C520.156458,343.660335 520.195643,343.529796 520.247891,343.373148 L538.900312,287.841525 C539.004808,287.423795 539.396661,287.123557 540.075885,286.9408 C540.755108,286.758044 541.538815,286.666667 542.42703,286.666667 C543.106253,286.666667 543.602601,287.110497 543.916089,287.998172 L562.411766,343.373148 C562.464014,343.529796 562.5032,343.660335 562.529324,343.764767 C562.555448,343.8692 562.56851,343.97363 562.56851,344.078063 C562.56851,344.443576 562.42483,344.678545 562.137466,344.782978 C561.850103,344.88741 561.575805,344.939625 561.314565,344.939625 C560.217359,344.939625 559.381404,344.861302 558.806677,344.704654 C558.231949,344.548005 557.840096,344.182497 557.631104,343.60812 Z M540.702857,295.595588 L532.317105,321.050845 L550.342553,321.050845 L541.956801,295.595588 C541.800057,295.125642 541.682501,294.629596 541.604129,294.107434 C541.525757,293.585273 541.434325,293.115334 541.329829,292.697605 C541.225333,293.115334 541.1339,293.585273 541.055529,294.107434 C540.977157,294.629596 540.859601,295.125642 540.702857,295.595588 Z M568.472497,343.843091 L568.472497,289.721298 C568.472497,288.781406 568.603115,288.207037 568.864355,287.998172 C569.125594,287.789308 569.465201,287.684877 569.883184,287.684877 L586.184459,287.684877 C589.685071,287.684877 592.59785,287.972062 594.922883,288.54644 C597.247917,289.120817 599.076567,290.034587 600.40889,291.287775 C601.741212,292.540963 602.681661,294.185748 603.230264,296.222179 C603.778867,298.258609 604.053165,300.764948 604.053165,303.74127 L604.053165,304.524509 C604.053165,307.605263 603.765806,310.163817 603.191078,312.200248 C602.616351,314.236679 601.636717,315.86841 600.252147,317.09549 C598.867576,318.32257 597.025864,319.197178 594.726955,319.719339 C592.428045,320.241501 589.580575,320.502578 586.184459,320.502578 L573.174788,320.502578 L573.174788,342.903205 C573.174788,343.477583 573.070294,343.960575 572.861302,344.352196 C572.65231,344.743818 572.312704,344.939625 571.842472,344.939625 C571.058753,344.939625 570.301169,344.822141 569.569698,344.587168 C568.838227,344.352195 568.472497,344.104172 568.472497,343.843091 Z M586.184459,291.836042 L573.174788,291.836042 L573.174788,316.351413 L586.184459,316.351413 C588.796856,316.351413 590.952052,316.181713 592.65011,315.842308 C594.348168,315.502903 595.68047,314.889372 596.647057,314.001697 C597.613644,313.114022 598.292857,311.900014 598.684716,310.359637 C599.076576,308.81926 599.272503,306.874237 599.272503,304.524509 L599.272503,303.74127 C599.272503,301.339326 599.076576,299.368195 598.684716,297.827818 C598.292857,296.287441 597.613644,295.073433 596.647057,294.185758 C595.68047,293.298083 594.348168,292.684552 592.65011,292.345147 C590.952052,292.005742 588.796856,291.836042 586.184459,291.836042 Z M611.36784,343.843091 L611.36784,289.721298 C611.36784,288.781406 611.498458,288.207037 611.759697,287.998172 C612.020937,287.789308 612.360544,287.684877 612.778527,287.684877 L629.079802,287.684877 C632.580414,287.684877 635.493193,287.972062 637.818226,288.54644 C640.143259,289.120817 641.97191,290.034587 643.304232,291.287775 C644.636555,292.540963 645.577004,294.185748 646.125607,296.222179 C646.67421,298.258609 646.948508,300.764948 646.948508,303.74127 L646.948508,304.524509 C646.948508,307.605263 646.661148,310.163817 646.086421,312.200248 C645.511694,314.236679 644.53206,315.86841 643.147489,317.09549 C641.762919,318.32257 639.921207,319.197178 637.622297,319.719339 C635.323388,320.241501 632.475918,320.502578 629.079802,320.502578 L616.070131,320.502578 L616.070131,342.903205 C616.070131,343.477583 615.965636,343.960575 615.756645,344.352196 C615.547653,344.743818 615.208046,344.939625 614.737815,344.939625 C613.954096,344.939625 613.196512,344.822141 612.465041,344.587168 C611.73357,344.352195 611.36784,344.104172 611.36784,343.843091 Z M629.079802,291.836042 L616.070131,291.836042 L616.070131,316.351413 L629.079802,316.351413 C631.692199,316.351413 633.847394,316.181713 635.545452,315.842308 C637.24351,315.502903 638.575813,314.889372 639.5424,314.001697 C640.508986,313.114022 641.188199,311.900014 641.580059,310.359637 C641.971919,308.81926 642.167845,306.874237 642.167845,304.524509 L642.167845,303.74127 C642.167845,301.339326 641.971919,299.368195 641.580059,297.827818 C641.188199,296.287441 640.508986,295.073433 639.5424,294.185758 C638.575813,293.298083 637.24351,292.684552 635.545452,292.345147 C633.847394,292.005742 631.692199,291.836042 629.079802,291.836042 Z M683.652501,343.999739 L656.771071,343.999739 C655.935104,343.999739 655.3212,343.895308 654.92934,343.686443 C654.537481,343.477579 654.341554,343.242609 654.341554,342.981529 L654.341554,287.841525 C654.341554,287.580444 654.694222,287.319367 655.39957,287.058286 C656.104917,286.797205 656.875562,286.666667 657.711529,286.666667 C658.234009,286.666667 658.599739,286.875528 658.80873,287.293258 C659.017722,287.710987 659.122217,288.207033 659.122217,288.781411 L659.122217,339.848574 L682.868786,339.848574 C683.286769,339.848574 683.678623,339.939951 684.044358,340.122707 C684.410094,340.305464 684.592959,340.63181 684.592959,341.101756 C684.592959,341.832782 684.501527,342.498528 684.318659,343.099014 C684.135791,343.6995 683.913741,343.999739 683.652501,343.999739 Z M694.80738,342.903205 C694.80738,343.477583 694.702886,343.960575 694.493894,344.352196 C694.284902,344.743818 693.919172,344.939625 693.396693,344.939625 C692.612974,344.939625 691.868452,344.822141 691.163104,344.587168 C690.457757,344.352195 690.105089,344.104172 690.105089,343.843091 L690.105089,287.841525 C690.105089,287.580444 690.457757,287.319367 691.163104,287.058286 C691.868452,286.797205 692.612974,286.666667 693.396693,286.666667 C693.919172,286.666667 694.284902,286.875528 694.493894,287.293258 C694.702886,287.710987 694.80738,288.207033 694.80738,288.781411 L694.80738,342.903205 Z M704.708315,342.824881 L704.708315,289.721298 C704.708315,288.363677 705.178539,287.684877 706.119002,287.684877 L735.194834,287.684877 C735.612818,287.684877 736.004671,287.776254 736.370407,287.959011 C736.736142,288.141767 736.919008,288.468113 736.919008,288.938059 C736.919008,289.616869 736.827575,290.269562 736.644707,290.896156 C736.461839,291.52275 736.239789,291.836042 735.978549,291.836042 L709.410606,291.836042 L709.410606,313.296782 L733.470661,313.296782 C733.888644,313.296782 734.29356,313.388159 734.685419,313.570916 C735.077279,313.753672 735.273206,314.080019 735.273206,314.549964 C735.273206,315.176558 735.15565,315.816197 734.920534,316.468899 C734.685418,317.121601 734.437244,317.447947 734.176004,317.447947 L709.410606,317.447947 L709.410606,339.848574 L735.194834,339.848574 C735.612818,339.848574 736.004671,339.939951 736.370407,340.122707 C736.736142,340.305464 736.919008,340.63181 736.919008,341.101756 C736.919008,341.780566 736.827575,342.433258 736.644707,343.059852 C736.461839,343.686447 736.239789,343.999739 735.978549,343.999739 L707.529689,343.999739 C706.954962,343.999739 706.341058,343.895308 705.687959,343.686443 C705.034859,343.477579 704.708315,343.190394 704.708315,342.824881 Z M747.2118,287.606553 L761.553787,287.606553 C765.158895,287.606553 768.293724,287.959007 770.958369,288.663925 C773.623014,289.368844 775.830456,290.54369 777.580762,292.188499 C779.331068,293.833309 780.637247,295.97414 781.499338,298.611057 C782.361429,301.247974 782.792468,304.524489 782.792468,308.440702 L782.792468,323.243914 C782.792468,327.160127 782.361429,330.436642 781.499338,333.073559 C780.637247,335.710476 779.331068,337.838253 777.580762,339.456955 C775.830456,341.075656 773.623014,342.237448 770.958369,342.942367 C768.293724,343.647285 765.158895,343.999739 761.553787,343.999739 L747.838772,343.999739 C747.211797,343.999739 746.571769,343.895308 745.91867,343.686443 C745.265571,343.477579 744.939026,343.190394 744.939026,342.824881 L744.939026,289.642974 C744.939026,288.755299 745.174138,288.193983 745.64437,287.959011 C746.114601,287.724038 746.637073,287.606553 747.2118,287.606553 Z M761.553787,291.757718 L749.641317,291.757718 L749.641317,339.848574 L761.553787,339.848574 C764.53192,339.848574 767.052845,339.561389 769.116638,338.987011 C771.180432,338.412633 772.878465,337.459702 774.210787,336.12819 C775.543109,334.796678 776.509682,333.034408 777.110533,330.841329 C777.711384,328.64825 778.011805,325.959157 778.011805,322.77397 L778.011805,308.910646 C778.011805,305.725459 777.711384,303.036366 777.110533,300.843287 C776.509682,298.650208 775.543109,296.887938 774.210787,295.556426 C772.878465,294.224913 771.180432,293.258929 769.116638,292.658443 C767.052845,292.057957 764.53192,291.757718 761.553787,291.757718 Z M839.664064,343.60812 L833.629458,325.123686 L813.174492,325.123686 L806.748028,343.999739 C806.591284,344.469684 806.186368,344.743815 805.533269,344.82214 C804.88017,344.900464 804.187895,344.939625 803.456424,344.939625 C803.090689,344.939625 802.777206,344.88741 802.515966,344.782978 C802.254726,344.678545 802.124108,344.443576 802.124108,344.078063 C802.124108,343.97363 802.13717,343.8692 802.163294,343.764767 C802.189418,343.660335 802.228603,343.529796 802.280851,343.373148 L820.933272,287.841525 C821.037768,287.423795 821.429622,287.123557 822.108845,286.9408 C822.788068,286.758044 823.571775,286.666667 824.45999,286.666667 C825.139213,286.666667 825.635561,287.110497 825.949049,287.998172 L844.444727,343.373148 C844.496975,343.529796 844.53616,343.660335 844.562284,343.764767 C844.588408,343.8692 844.60147,343.97363 844.60147,344.078063 C844.60147,344.443576 844.45779,344.678545 844.170426,344.782978 C843.883063,344.88741 843.608765,344.939625 843.347525,344.939625 C842.250319,344.939625 841.414364,344.861302 840.839637,344.704654 C840.26491,344.548005 839.873056,344.182497 839.664064,343.60812 Z M822.735817,295.595588 L814.350065,321.050845 L832.375513,321.050845 L823.989761,295.595588 C823.833017,295.125642 823.715461,294.629596 823.637089,294.107434 C823.558717,293.585273 823.467285,293.115334 823.362789,292.697605 C823.258293,293.115334 823.166861,293.585273 823.088489,294.107434 C823.010117,294.629596 822.892561,295.125642 822.735817,295.595588 Z M850.505457,343.843091 L850.505457,289.642974 C850.505457,289.068596 850.623013,288.585603 850.858129,288.193982 C851.093245,287.802361 851.472037,287.606553 851.994516,287.606553 L868.21742,287.606553 C871.718032,287.606553 874.63081,287.893738 876.955844,288.468116 C879.280877,289.042494 881.109527,289.969317 882.44185,291.248613 C883.774172,292.527909 884.714621,294.185748 885.263224,296.222179 C885.811828,298.258609 886.086125,300.764948 886.086125,303.74127 L886.086125,304.524509 C886.086125,306.978669 885.90326,309.1195 885.537525,310.947066 C885.171789,312.774632 884.544823,314.314986 883.656608,315.568174 C882.768393,316.821363 881.540585,317.813455 879.973147,318.544481 C878.405709,319.275508 876.446441,319.797662 874.095283,320.110959 L886.32124,342.354938 C886.425736,342.616019 886.556354,342.890149 886.713097,343.177338 C886.869841,343.464527 886.948212,343.738658 886.948212,343.999739 C886.948212,344.365252 886.79147,344.613275 886.477983,344.743816 C886.164495,344.874356 885.824889,344.939625 885.459153,344.939625 C884.727682,344.939625 883.957036,344.782979 883.147193,344.469682 C882.33735,344.156385 881.723446,343.608123 881.305463,342.824881 L869.001135,320.502578 L855.207748,320.502578 L855.207748,342.903205 C855.207748,343.477583 855.103254,343.960575 854.894262,344.352196 C854.68527,344.743818 854.345664,344.939625 853.875432,344.939625 C853.091713,344.939625 852.33413,344.822141 851.602658,344.587168 C850.871187,344.352195 850.505457,344.104172 850.505457,343.843091 Z M868.374163,291.757718 L855.207748,291.757718 L855.207748,316.351413 L868.374163,316.351413 C870.98656,316.351413 873.128693,316.194767 874.800627,315.88147 C876.472561,315.568173 877.791802,314.967696 878.758389,314.080021 C879.724975,313.192346 880.391127,311.991392 880.756862,310.477123 C881.122598,308.962854 881.305463,306.978669 881.305463,304.524509 L881.305463,303.74127 C881.305463,301.339326 881.122598,299.355141 880.756862,297.788656 C880.391127,296.222171 879.724975,294.995109 878.758389,294.107434 C877.791802,293.219759 876.472561,292.606228 874.800627,292.266823 C873.128693,291.927418 870.98656,291.757718 868.374163,291.757718 Z M911.191134,291.836042 L911.191134,342.903205 C911.191134,343.477583 911.08664,343.960575 910.877648,344.352196 C910.668656,344.743818 910.32905,344.939625 909.858818,344.939625 C909.022851,344.939625 908.252206,344.822141 907.546859,344.587168 C906.841511,344.352195 906.488843,344.104172 906.488843,343.843091 L906.488843,291.836042 L890.579425,291.836042 C890.004698,291.836042 889.547536,291.744665 889.207924,291.561908 C888.868312,291.379152 888.698509,291.052806 888.698509,290.58286 C888.698509,289.90405 888.803003,289.251357 889.011995,288.624763 C889.220987,287.998169 889.456099,287.684877 889.717339,287.684877 L927.100552,287.684877 C927.570783,287.684877 928.001822,287.776254 928.393682,287.959011 C928.785541,288.141767 928.981468,288.468113 928.981468,288.938059 C928.981468,289.669085 928.876974,290.334832 928.667982,290.935318 C928.45899,291.535804 928.223878,291.836042 927.962638,291.836042 L911.191134,291.836042 Z M938.177059,342.903205 C938.177059,343.477583 938.072565,343.960575 937.863573,344.352196 C937.654581,344.743818 937.288851,344.939625 936.766372,344.939625 C935.982653,344.939625 935.238131,344.822141 934.532784,344.587168 C933.827437,344.352195 933.474768,344.104172 933.474768,343.843091 L933.474768,287.841525 C933.474768,287.580444 933.827437,287.319367 934.532784,287.058286 C935.238131,286.797205 935.982653,286.666667 936.766372,286.666667 C937.288851,286.666667 937.654581,286.875528 937.863573,287.293258 C938.072565,287.710987 938.177059,288.207033 938.177059,288.781411 L938.177059,342.903205 Z M952.780285,317.447947 L952.780285,342.903205 C952.780285,343.477583 952.675791,343.960575 952.466799,344.352196 C952.257807,344.743818 951.892077,344.939625 951.369598,344.939625 C950.638126,344.939625 949.906666,344.822141 949.175195,344.587168 C948.443724,344.352195 948.077994,344.104172 948.077994,343.843091 L948.077994,289.17303 C948.077994,288.598653 948.234735,288.207037 948.548223,287.998172 C948.861711,287.789308 949.5148,287.684877 950.507511,287.684877 L978.564513,287.684877 C978.982497,287.684877 979.374351,287.776254 979.740086,287.959011 C980.105822,288.141767 980.288687,288.468113 980.288687,288.938059 C980.288687,289.616869 980.197254,290.269562 980.014386,290.896156 C979.831519,291.52275 979.609468,291.836042 979.348229,291.836042 L952.780285,291.836042 L952.780285,313.296782 L975.429653,313.296782 C975.899884,313.296782 976.3048,313.388159 976.644411,313.570916 C976.984023,313.753672 977.153826,314.080019 977.153826,314.549964 C977.153826,315.280991 977.049332,315.946737 976.84034,316.547223 C976.631348,317.147709 976.396236,317.447947 976.134996,317.447947 L952.780285,317.447947 Z M990.267993,342.903205 C990.267993,343.477583 990.163499,343.960575 989.954507,344.352196 C989.745515,344.743818 989.379785,344.939625 988.857306,344.939625 C988.073587,344.939625 987.329065,344.822141 986.623718,344.587168 C985.91837,344.352195 985.565702,344.104172 985.565702,343.843091 L985.565702,287.841525 C985.565702,287.580444 985.91837,287.319367 986.623718,287.058286 C987.329065,286.797205 988.073587,286.666667 988.857306,286.666667 C989.379785,286.666667 989.745515,286.875528 989.954507,287.293258 C990.163499,287.710987 990.267993,288.207033 990.267993,288.781411 L990.267993,342.903205 Z M1003.85239,307.892435 L1003.85239,323.713857 C1003.85239,326.95126 1004.12669,329.66646 1004.67529,331.859539 C1005.22389,334.052618 1006.11209,335.827942 1007.33992,337.185562 C1008.56775,338.543183 1010.16129,339.522221 1012.12058,340.122707 C1014.07988,340.723193 1016.47019,341.023432 1019.29158,341.023432 L1019.91855,341.023432 C1022.68769,341.023432 1025.02575,340.840678 1026.9328,340.475165 C1028.83985,340.109652 1030.13297,339.874682 1030.81219,339.77025 C1031.23017,339.718034 1031.51753,340.083542 1031.67428,340.866784 C1031.83102,341.650027 1031.90939,342.328827 1031.90939,342.903205 C1031.90939,343.164286 1031.54366,343.425363 1030.81219,343.686443 C1030.08072,343.947524 1029.12721,344.16944 1027.95163,344.352196 C1026.77605,344.534953 1025.45681,344.678545 1023.99387,344.782978 C1022.53093,344.88741 1021.06801,344.939625 1019.60506,344.939625 L1018.97809,344.939625 C1015.58198,344.939625 1012.64307,344.587171 1010.1613,343.882253 C1007.67952,343.177335 1005.61576,342.015542 1003.96995,340.396841 C1002.32414,338.77814 1001.09633,336.650362 1000.28649,334.013446 C999.476642,331.376529 999.071727,328.100013 999.071727,324.1838 L999.071727,307.422492 C999.071727,303.506279 999.476642,300.229763 1000.28649,297.592846 C1001.09633,294.95593 1002.3372,292.828152 1004.00913,291.209451 C1005.68107,289.59075 1007.77095,288.428957 1010.27885,287.724039 C1012.78675,287.019121 1015.73872,286.666667 1019.13483,286.666667 L1019.76181,286.666667 C1021.01576,286.666667 1022.36112,286.718882 1023.79794,286.823314 C1025.23476,286.927747 1026.554,287.071339 1027.7557,287.254096 C1028.9574,287.436852 1029.96316,287.645714 1030.773,287.880687 C1031.58285,288.115659 1031.98776,288.38979 1031.98776,288.703087 C1031.98776,289.434114 1031.92245,290.152075 1031.79183,290.856994 C1031.66121,291.561912 1031.41304,291.888258 1031.0473,291.836042 C1030.73382,291.783826 1030.23747,291.692449 1029.55825,291.561908 C1028.87902,291.431368 1028.04307,291.30083 1027.05036,291.170289 C1026.05765,291.039749 1024.97352,290.922264 1023.79794,290.817832 C1022.62236,290.713399 1021.38149,290.661184 1020.07529,290.661184 L1019.44832,290.661184 C1016.57468,290.661184 1014.14519,290.961422 1012.15977,291.561908 C1010.17435,292.162394 1008.56775,293.128379 1007.33992,294.459892 C1006.11209,295.791404 1005.22389,297.566727 1004.67529,299.785915 C1004.12669,302.005102 1003.85239,304.707249 1003.85239,307.892435 Z M1044.00473,342.903205 C1044.00473,343.477583 1043.90023,343.960575 1043.69124,344.352196 C1043.48225,344.743818 1043.11652,344.939625 1042.59404,344.939625 C1041.81032,344.939625 1041.0658,344.822141 1040.36045,344.587168 C1039.65511,344.352195 1039.30244,344.104172 1039.30244,343.843091 L1039.30244,287.841525 C1039.30244,287.580444 1039.65511,287.319367 1040.36045,287.058286 C1041.0658,286.797205 1041.81032,286.666667 1042.59404,286.666667 C1043.11652,286.666667 1043.48225,286.875528 1043.69124,287.293258 C1043.90023,287.710987 1044.00473,288.207033 1044.00473,288.781411 L1044.00473,342.903205 Z M1087.44867,343.60812 L1081.41407,325.123686 L1060.9591,325.123686 L1054.53264,343.999739 C1054.37589,344.469684 1053.97098,344.743815 1053.31788,344.82214 C1052.66478,344.900464 1051.9725,344.939625 1051.24103,344.939625 C1050.8753,344.939625 1050.56181,344.88741 1050.30057,344.782978 C1050.03933,344.678545 1049.90872,344.443576 1049.90872,344.078063 C1049.90872,343.97363 1049.92178,343.8692 1049.9479,343.764767 C1049.97403,343.660335 1050.01321,343.529796 1050.06546,343.373148 L1068.71788,287.841525 C1068.82238,287.423795 1069.21423,287.123557 1069.89345,286.9408 C1070.57268,286.758044 1071.35638,286.666667 1072.2446,286.666667 C1072.92382,286.666667 1073.42017,287.110497 1073.73366,287.998172 L1092.22933,343.373148 C1092.28158,343.529796 1092.32077,343.660335 1092.34689,343.764767 C1092.37302,343.8692 1092.38608,343.97363 1092.38608,344.078063 C1092.38608,344.443576 1092.2424,344.678545 1091.95503,344.782978 C1091.66767,344.88741 1091.39337,344.939625 1091.13213,344.939625 C1090.03493,344.939625 1089.19897,344.861302 1088.62424,344.704654 C1088.04952,344.548005 1087.65766,344.182497 1087.44867,343.60812 Z M1070.52042,295.595588 L1062.13467,321.050845 L1080.16012,321.050845 L1071.77437,295.595588 C1071.61763,295.125642 1071.50007,294.629596 1071.4217,294.107434 C1071.34333,293.585273 1071.25189,293.115334 1071.1474,292.697605 C1071.0429,293.115334 1070.95147,293.585273 1070.8731,294.107434 C1070.79472,294.629596 1070.67717,295.125642 1070.52042,295.595588 Z M1127.67938,343.999739 L1100.79795,343.999739 C1099.96199,343.999739 1099.34808,343.895308 1098.95622,343.686443 C1098.56436,343.477579 1098.36844,343.242609 1098.36844,342.981529 L1098.36844,287.841525 C1098.36844,287.580444 1098.7211,287.319367 1099.42645,287.058286 C1100.1318,286.797205 1100.90244,286.666667 1101.73841,286.666667 C1102.26089,286.666667 1102.62662,286.875528 1102.83561,287.293258 C1103.0446,287.710987 1103.1491,288.207033 1103.1491,288.781411 L1103.1491,339.848574 L1126.89567,339.848574 C1127.31365,339.848574 1127.70551,339.939951 1128.07124,340.122707 C1128.43698,340.305464 1128.61984,340.63181 1128.61984,341.101756 C1128.61984,341.832782 1128.52841,342.498528 1128.34554,343.099014 C1128.16267,343.6995 1127.94062,343.999739 1127.67938,343.999739 Z M528.790386,417.963579 C528.790386,418.537957 528.685892,419.02095 528.4769,419.412571 C528.267909,419.804192 527.902178,420 527.379699,420 C526.59598,420 525.851458,419.882515 525.146111,419.647543 C524.440764,419.41257 524.088095,419.164547 524.088095,418.903466 L524.088095,362.901899 C524.088095,362.640818 524.440764,362.379742 525.146111,362.118661 C525.851458,361.85758 526.59598,361.727041 527.379699,361.727041 C527.902178,361.727041 528.267909,361.935903 528.4769,362.353632 C528.685892,362.771362 528.790386,363.267408 528.790386,363.841786 L528.790386,417.963579 Z M574.193618,411.149403 L574.193618,362.823575 C574.193618,362.562495 574.520162,362.314472 575.173262,362.079499 C575.826361,361.844526 576.597006,361.727041 577.485221,361.727041 C577.955453,361.727041 578.268936,361.948957 578.425679,362.392794 C578.582423,362.836632 578.660794,363.345732 578.660794,363.92011 L578.660794,417.963579 C578.660794,418.537957 578.543238,419.02095 578.308122,419.412571 C578.073006,419.804192 577.746462,420 577.328478,420 C576.753751,420 576.113723,419.908623 575.408376,419.725866 C574.703029,419.54311 574.298113,419.321194 574.193618,419.060114 L543.236869,370.655962 L543.236869,417.963579 C543.236869,418.537957 543.145436,419.02095 542.962569,419.412571 C542.779701,419.804192 542.453156,420 541.982925,420 C541.146958,420 540.402436,419.882515 539.749337,419.647543 C539.096237,419.41257 538.769693,419.164547 538.769693,418.903466 L538.769693,362.901899 C538.769693,362.640818 539.070114,362.379742 539.670965,362.118661 C540.271816,361.85758 540.990215,361.727041 541.826182,361.727041 C542.139669,361.727041 542.427029,361.844526 542.688268,362.079499 C542.949508,362.314472 543.132373,362.562495 543.236869,362.823575 L574.193618,411.149403 Z M605.646719,366.896417 L605.646719,417.963579 C605.646719,418.537957 605.542225,419.02095 605.333233,419.412571 C605.124241,419.804192 604.784635,420 604.314403,420 C603.478436,420 602.707791,419.882515 602.002444,419.647543 C601.297097,419.41257 600.944428,419.164547 600.944428,418.903466 L600.944428,366.896417 L585.035011,366.896417 C584.460283,366.896417 584.003121,366.80504 583.663509,366.622283 C583.323897,366.439527 583.154094,366.11318 583.154094,365.643235 C583.154094,364.964425 583.258589,364.311732 583.46758,363.685138 C583.676572,363.058544 583.911684,362.745252 584.172924,362.745252 L621.556137,362.745252 C622.026368,362.745252 622.457407,362.836629 622.849267,363.019385 C623.241126,363.202142 623.437053,363.528488 623.437053,363.998434 C623.437053,364.72946 623.332559,365.395206 623.123567,365.995692 C622.914575,366.596178 622.679463,366.896417 622.418223,366.896417 L605.646719,366.896417 Z M627.930353,417.885256 L627.930353,364.781672 C627.930353,363.424052 628.400578,362.745252 629.341041,362.745252 L658.416873,362.745252 C658.834856,362.745252 659.22671,362.836629 659.592446,363.019385 C659.958181,363.202142 660.141046,363.528488 660.141046,363.998434 C660.141046,364.677244 660.049614,365.329936 659.866746,365.95653 C659.683878,366.583124 659.461828,366.896417 659.200588,366.896417 L632.632644,366.896417 L632.632644,388.357157 L656.6927,388.357157 C657.110683,388.357157 657.515598,388.448534 657.907458,388.63129 C658.299318,388.814047 658.495244,389.140393 658.495244,389.610339 C658.495244,390.236933 658.377688,390.876571 658.142573,391.529274 C657.907457,392.181976 657.659283,392.508322 657.398043,392.508322 L632.632644,392.508322 L632.632644,414.908949 L658.416873,414.908949 C658.834856,414.908949 659.22671,415.000325 659.592446,415.183082 C659.958181,415.365839 660.141046,415.692185 660.141046,416.16213 C660.141046,416.840941 660.049614,417.493633 659.866746,418.120227 C659.683878,418.746821 659.461828,419.060114 659.200588,419.060114 L630.751728,419.060114 C630.177001,419.060114 629.563097,418.955683 628.909997,418.746818 C628.256898,418.537953 627.930353,418.250769 627.930353,417.885256 Z M697.472011,419.060114 L670.590582,419.060114 C669.754615,419.060114 669.140711,418.955683 668.748851,418.746818 C668.356991,418.537953 668.161065,418.302984 668.161065,418.041903 L668.161065,362.901899 C668.161065,362.640818 668.513733,362.379742 669.21908,362.118661 C669.924427,361.85758 670.695073,361.727041 671.53104,361.727041 C672.053519,361.727041 672.419249,361.935903 672.628241,362.353632 C672.837233,362.771362 672.941727,363.267408 672.941727,363.841786 L672.941727,414.908949 L696.688296,414.908949 C697.10628,414.908949 697.498133,415.000325 697.863869,415.183082 C698.229605,415.365839 698.41247,415.692185 698.41247,416.16213 C698.41247,416.893157 698.321037,417.558903 698.138169,418.159389 C697.955302,418.759875 697.733251,419.060114 697.472011,419.060114 Z M733.235546,419.060114 L706.354116,419.060114 C705.518149,419.060114 704.904245,418.955683 704.512386,418.746818 C704.120526,418.537953 703.924599,418.302984 703.924599,418.041903 L703.924599,362.901899 C703.924599,362.640818 704.277268,362.379742 704.982615,362.118661 C705.687962,361.85758 706.458608,361.727041 707.294575,361.727041 C707.817054,361.727041 708.182784,361.935903 708.391776,362.353632 C708.600768,362.771362 708.705262,363.267408 708.705262,363.841786 L708.705262,414.908949 L732.451831,414.908949 C732.869815,414.908949 733.261668,415.000325 733.627404,415.183082 C733.993139,415.365839 734.176004,415.692185 734.176004,416.16213 C734.176004,416.893157 734.084572,417.558903 733.901704,418.159389 C733.718836,418.759875 733.496786,419.060114 733.235546,419.060114 Z M744.390425,417.963579 C744.390425,418.537957 744.285931,419.02095 744.076939,419.412571 C743.867947,419.804192 743.502217,420 742.979738,420 C742.196019,420 741.451497,419.882515 740.74615,419.647543 C740.040803,419.41257 739.688134,419.164547 739.688134,418.903466 L739.688134,362.901899 C739.688134,362.640818 740.040803,362.379742 740.74615,362.118661 C741.451497,361.85758 742.196019,361.727041 742.979738,361.727041 C743.502217,361.727041 743.867947,361.935903 744.076939,362.353632 C744.285931,362.771362 744.390425,363.267408 744.390425,363.841786 L744.390425,417.963579 Z M757.974821,382.95281 L757.974821,398.774231 C757.974821,401.959418 758.288304,404.648511 758.915279,406.84159 C759.542255,409.034669 760.534951,410.796939 761.893397,412.128451 C763.251843,413.459964 764.989061,414.425948 767.105103,415.026434 C769.221144,415.62692 771.768193,415.927159 774.746326,415.927159 L775.530041,415.927159 C777.776702,415.927159 779.801279,415.809674 781.603833,415.574701 C783.406387,415.339729 785.483211,415.013382 787.834369,414.595653 L787.834369,393.369884 C787.834369,393.056587 788.13479,392.808564 788.735641,392.625808 C789.336492,392.443051 790.081014,392.351674 790.969229,392.351674 C791.596205,392.351674 792.014182,392.521374 792.223174,392.860779 C792.432165,393.200184 792.53666,393.7615 792.53666,394.544743 L792.53666,415.300568 C792.53666,416.240459 792.445227,416.85399 792.262359,417.141179 C792.079492,417.428368 791.77907,417.650283 791.361087,417.806932 C790.681864,418.068013 789.754477,418.329089 788.578898,418.59017 C787.403319,418.851251 786.084079,419.08622 784.621137,419.295085 C783.158194,419.50395 781.643027,419.67365 780.075589,419.80419 C778.508151,419.934731 776.992983,420 775.530041,420 L774.746326,420 C771.08897,420 767.914955,419.647546 765.224186,418.942628 C762.533418,418.237709 760.299852,417.075917 758.523422,415.457216 C756.746992,413.838514 755.41469,411.710737 754.526475,409.07382 C753.63826,406.436903 753.194159,403.160388 753.194159,399.244175 L753.194159,382.482867 C753.194159,378.566654 753.651321,375.290138 754.56566,372.653221 C755.479999,370.016304 756.864549,367.888527 758.719351,366.269826 C760.574152,364.651124 762.886089,363.489332 765.65523,362.784414 C768.424371,362.079495 771.689818,361.727041 775.451669,361.727041 L777.097471,361.727041 C779.344132,361.727041 781.434019,361.792311 783.367192,361.922851 C785.300366,362.053391 786.972275,362.236145 788.382969,362.471118 C789.793664,362.706091 790.903916,362.967168 791.713759,363.254357 C792.523602,363.541546 792.928517,363.867892 792.928517,364.233405 C792.928517,364.807783 792.784838,365.486583 792.497474,366.269826 C792.21011,367.053068 791.857442,367.418576 791.439458,367.36636 C790.603491,367.157495 789.741413,366.961687 788.853198,366.778931 C787.964983,366.596174 786.985349,366.439528 785.914267,366.308988 C784.843184,366.178447 783.628437,366.074016 782.269991,365.995692 C780.911545,365.917368 779.34413,365.878206 777.5677,365.878206 L775.921898,365.878206 C772.682526,365.878206 769.939551,366.165391 767.692889,366.739769 C765.446228,367.314147 763.591454,368.267078 762.128512,369.59859 C760.665569,370.930103 759.607564,372.692372 758.954465,374.885451 C758.301366,377.078531 757.974821,379.767623 757.974821,382.95281 Z M801.418765,417.885256 L801.418765,364.781672 C801.418765,363.424052 801.888989,362.745252 802.829452,362.745252 L831.905284,362.745252 C832.323268,362.745252 832.715121,362.836629 833.080857,363.019385 C833.446593,363.202142 833.629458,363.528488 833.629458,363.998434 C833.629458,364.677244 833.538025,365.329936 833.355157,365.95653 C833.172289,366.583124 832.950239,366.896417 832.688999,366.896417 L806.121056,366.896417 L806.121056,388.357157 L830.181111,388.357157 C830.599094,388.357157 831.00401,388.448534 831.395869,388.63129 C831.787729,388.814047 831.983656,389.140393 831.983656,389.610339 C831.983656,390.236933 831.8661,390.876571 831.630984,391.529274 C831.395868,392.181976 831.147694,392.508322 830.886455,392.508322 L806.121056,392.508322 L806.121056,414.908949 L831.905284,414.908949 C832.323268,414.908949 832.715121,415.000325 833.080857,415.183082 C833.446593,415.365839 833.629458,415.692185 833.629458,416.16213 C833.629458,416.840941 833.538025,417.493633 833.355157,418.120227 C833.172289,418.746821 832.950239,419.060114 832.688999,419.060114 L804.240139,419.060114 C803.665412,419.060114 803.051508,418.955683 802.398409,418.746818 C801.745309,418.537953 801.418765,418.250769 801.418765,417.885256 Z M877.151772,411.149403 L877.151772,362.823575 C877.151772,362.562495 877.478317,362.314472 878.131416,362.079499 C878.784516,361.844526 879.555161,361.727041 880.443376,361.727041 C880.913608,361.727041 881.22709,361.948957 881.383834,362.392794 C881.540578,362.836632 881.618949,363.345732 881.618949,363.92011 L881.618949,417.963579 C881.618949,418.537957 881.501393,419.02095 881.266277,419.412571 C881.031161,419.804192 880.704617,420 880.286633,420 C879.711906,420 879.071878,419.908623 878.366531,419.725866 C877.661184,419.54311 877.256268,419.321194 877.151772,419.060114 L846.195024,370.655962 L846.195024,417.963579 C846.195024,418.537957 846.103591,419.02095 845.920724,419.412571 C845.737856,419.804192 845.411311,420 844.94108,420 C844.105113,420 843.360591,419.882515 842.707491,419.647543 C842.054392,419.41257 841.727847,419.164547 841.727847,418.903466 L841.727847,362.901899 C841.727847,362.640818 842.028269,362.379742 842.62912,362.118661 C843.229971,361.85758 843.94837,361.727041 844.784337,361.727041 C845.097824,361.727041 845.385184,361.844526 845.646423,362.079499 C845.907663,362.314472 846.090528,362.562495 846.195024,362.823575 L877.151772,411.149403 Z M895.281716,382.95281 L895.281716,398.774231 C895.281716,402.011634 895.556014,404.726835 896.104617,406.919914 C896.653221,409.112993 897.541422,410.888316 898.769249,412.245937 C899.997075,413.603557 901.590614,414.582596 903.549911,415.183082 C905.509209,415.783568 907.899516,416.083807 910.720905,416.083807 L911.347877,416.083807 C914.117018,416.083807 916.455078,415.901053 918.362128,415.535539 C920.269177,415.170026 921.562294,414.935057 922.241518,414.830625 C922.659501,414.778408 922.946861,415.143916 923.103604,415.927159 C923.260348,416.710401 923.338719,417.389201 923.338719,417.963579 C923.338719,418.22466 922.972989,418.485737 922.241518,418.746818 C921.510047,419.007899 920.556536,419.229814 919.380957,419.412571 C918.205379,419.595328 916.886138,419.73892 915.423196,419.843352 C913.960254,419.947785 912.497333,420 911.034391,420 L910.407419,420 C907.011303,420 904.0724,419.647546 901.590623,418.942628 C899.108846,418.237709 897.045084,417.075917 895.399274,415.457216 C893.753464,413.838514 892.525655,411.710737 891.715812,409.07382 C890.905969,406.436903 890.501054,403.160388 890.501054,399.244175 L890.501054,382.482867 C890.501054,378.566654 890.905969,375.290138 891.715812,372.653221 C892.525655,370.016304 893.766525,367.888527 895.438459,366.269826 C897.110393,364.651124 899.20028,363.489332 901.708181,362.784414 C904.216082,362.079495 907.168046,361.727041 910.564162,361.727041 L911.191134,361.727041 C912.445085,361.727041 913.790449,361.779257 915.227267,361.883689 C916.664085,361.988121 917.983326,362.131714 919.185029,362.31447 C920.386731,362.497227 921.392489,362.706089 922.202332,362.941061 C923.012175,363.176034 923.41709,363.450165 923.41709,363.763462 C923.41709,364.494488 923.351781,365.21245 923.221162,365.917368 C923.090542,366.622287 922.842368,366.948633 922.476632,366.896417 C922.163145,366.844201 921.666797,366.752824 920.987573,366.622283 C920.30835,366.491743 919.472396,366.361204 918.479685,366.230664 C917.486974,366.100123 916.402846,365.982639 915.227267,365.878206 C914.051688,365.773774 912.810819,365.721559 911.50462,365.721559 L910.877648,365.721559 C908.004011,365.721559 905.574519,366.021797 903.589097,366.622283 C901.603675,367.222769 899.997075,368.188754 898.769249,369.520266 C897.541422,370.851779 896.653221,372.627102 896.104617,374.846289 C895.556014,377.065477 895.281716,379.767623 895.281716,382.95281 Z M930.731765,417.885256 L930.731765,364.781672 C930.731765,363.424052 931.20199,362.745252 932.142452,362.745252 L961.218285,362.745252 C961.636268,362.745252 962.028122,362.836629 962.393857,363.019385 C962.759593,363.202142 962.942458,363.528488 962.942458,363.998434 C962.942458,364.677244 962.851026,365.329936 962.668158,365.95653 C962.48529,366.583124 962.26324,366.896417 962.002,366.896417 L935.434056,366.896417 L935.434056,388.357157 L959.494111,388.357157 C959.912095,388.357157 960.31701,388.448534 960.70887,388.63129 C961.100729,388.814047 961.296656,389.140393 961.296656,389.610339 C961.296656,390.236933 961.1791,390.876571 960.943984,391.529274 C960.708869,392.181976 960.460695,392.508322 960.199455,392.508322 L935.434056,392.508322 L935.434056,414.908949 L961.218285,414.908949 C961.636268,414.908949 962.028122,415.000325 962.393857,415.183082 C962.759593,415.365839 962.942458,415.692185 962.942458,416.16213 C962.942458,416.840941 962.851026,417.493633 962.668158,418.120227 C962.48529,418.746821 962.26324,419.060114 962.002,419.060114 L933.55314,419.060114 C932.978412,419.060114 932.364508,418.955683 931.711409,418.746818 C931.05831,418.537953 930.731765,418.250769 930.731765,417.885256 Z M990.11125,417.963579 C990.11125,418.537957 990.006756,419.02095 989.797764,419.412571 C989.588772,419.804192 989.223042,420 988.700563,420 C987.916844,420 987.172322,419.882515 986.466975,419.647543 C985.761627,419.41257 985.408959,419.164547 985.408959,418.903466 L985.408959,362.901899 C985.408959,362.640818 985.761627,362.379742 986.466975,362.118661 C987.172322,361.85758 987.916844,361.727041 988.700563,361.727041 C989.223042,361.727041 989.588772,361.935903 989.797764,362.353632 C990.006756,362.771362 990.11125,363.267408 990.11125,363.841786 L990.11125,417.963579 Z M1035.51448,411.149403 L1035.51448,362.823575 C1035.51448,362.562495 1035.84103,362.314472 1036.49413,362.079499 C1037.14722,361.844526 1037.91787,361.727041 1038.80608,361.727041 C1039.27632,361.727041 1039.5898,361.948957 1039.74654,362.392794 C1039.90329,362.836632 1039.98166,363.345732 1039.98166,363.92011 L1039.98166,417.963579 C1039.98166,418.537957 1039.8641,419.02095 1039.62899,419.412571 C1039.39387,419.804192 1039.06733,420 1038.64934,420 C1038.07461,420 1037.43459,419.908623 1036.72924,419.725866 C1036.02389,419.54311 1035.61898,419.321194 1035.51448,419.060114 L1004.55773,370.655962 L1004.55773,417.963579 C1004.55773,418.537957 1004.4663,419.02095 1004.28343,419.412571 C1004.10056,419.804192 1003.77402,420 1003.30379,420 C1002.46782,420 1001.7233,419.882515 1001.0702,419.647543 C1000.4171,419.41257 1000.09056,419.164547 1000.09056,418.903466 L1000.09056,362.901899 C1000.09056,362.640818 1000.39098,362.379742 1000.99183,362.118661 C1001.59268,361.85758 1002.31108,361.727041 1003.14705,361.727041 C1003.46053,361.727041 1003.74789,361.844526 1004.00913,362.079499 C1004.27037,362.314472 1004.45324,362.562495 1004.55773,362.823575 L1035.51448,411.149403 Z M1047.84493,414.12571 C1049.20338,414.491223 1051.00591,414.908946 1053.25257,415.378892 C1055.49923,415.848837 1057.92872,416.083807 1060.54112,416.083807 C1062.00406,416.083807 1063.53229,415.953268 1065.12585,415.692187 C1066.71941,415.431106 1068.18233,414.961168 1069.51466,414.282358 C1070.84698,413.603547 1071.93111,412.650616 1072.76707,411.423536 C1073.60304,410.196456 1074.02102,408.590833 1074.02102,406.606618 C1074.02102,404.204674 1073.38099,402.116059 1072.10092,400.340709 C1070.82084,398.565359 1069.21424,396.90752 1067.28107,395.367143 C1065.3479,393.826766 1063.24495,392.351681 1060.97216,390.941845 C1058.69938,389.532008 1056.59643,388.017762 1054.66325,386.39906 C1052.73008,384.780359 1051.12348,382.978928 1049.84341,380.994713 C1048.56333,379.010499 1047.9233,376.686914 1047.9233,374.023889 C1047.9233,371.883026 1048.35434,370.042433 1049.21643,368.502056 C1050.07853,366.961679 1051.25409,365.682402 1052.74315,364.664186 C1054.23222,363.645971 1055.95638,362.901902 1057.91567,362.431956 C1059.87497,361.962011 1061.97792,361.727041 1064.22458,361.727041 C1064.95605,361.727041 1065.85731,361.766203 1066.9284,361.844527 C1067.99948,361.922851 1069.09667,362.014228 1070.22,362.118661 C1071.34333,362.223093 1072.42746,362.379739 1073.47242,362.588604 C1074.51738,362.797469 1075.40558,363.00633 1076.13705,363.215195 C1076.76403,363.42406 1077.15588,363.632921 1077.31262,363.841786 C1077.46937,364.05065 1077.49549,364.390051 1077.39099,364.859996 C1077.2865,365.434374 1077.12976,365.956528 1076.92077,366.426473 C1076.71177,366.896419 1076.2938,367.079173 1075.66682,366.974741 C1073.89039,366.609227 1072.16624,366.308989 1070.4943,366.074016 C1068.82237,365.839043 1067.07209,365.721559 1065.24341,365.721559 C1063.46698,365.721559 1061.80813,365.878205 1060.26682,366.191502 C1058.7255,366.504799 1057.38014,366.987791 1056.23069,367.640493 C1055.08123,368.293196 1054.17997,369.128642 1053.52687,370.146857 C1052.87377,371.165073 1052.54722,372.405188 1052.54722,373.867241 C1052.54722,375.955888 1053.18725,377.796481 1054.46733,379.389074 C1055.7474,380.981667 1057.354,382.508967 1059.28717,383.97102 C1061.22035,385.433073 1063.3233,386.868996 1065.59608,388.278833 C1067.86887,389.68867 1069.97181,391.255131 1071.90499,392.978265 C1073.83816,394.701399 1075.44476,396.659476 1076.72484,398.852555 C1078.00491,401.045635 1078.64494,403.604189 1078.64494,406.528294 C1078.64494,409.034671 1078.14859,411.149394 1077.15588,412.872528 C1076.16317,414.595662 1074.85699,415.992423 1073.2373,417.062855 C1071.61762,418.133286 1069.74978,418.89041 1067.63374,419.334247 C1065.5177,419.778085 1063.33638,420 1061.08972,420 C1059.99251,420 1058.77777,419.947785 1057.44544,419.843352 C1056.11312,419.73892 1054.82,419.608381 1053.56605,419.451733 C1052.3121,419.295084 1051.1496,419.112331 1050.07852,418.903466 C1049.00744,418.694601 1048.1323,418.459632 1047.45308,418.198551 C1046.87835,417.989686 1046.53874,417.780825 1046.43425,417.57196 C1046.32975,417.363095 1046.2775,417.049803 1046.2775,416.632074 C1046.382,415.953263 1046.52568,415.326679 1046.70855,414.752301 C1046.89141,414.177923 1047.27021,413.969061 1047.84493,414.12571 Z M1102.96623,366.896417 L1102.96623,417.963579 C1102.96623,418.537957 1102.86174,419.02095 1102.65275,419.412571 C1102.44375,419.804192 1102.10415,420 1101.63392,420 C1100.79795,420 1100.0273,419.882515 1099.32196,419.647543 C1098.61661,419.41257 1098.26394,419.164547 1098.26394,418.903466 L1098.26394,366.896417 L1082.35452,366.896417 C1081.7798,366.896417 1081.32263,366.80504 1080.98302,366.622283 C1080.64341,366.439527 1080.47361,366.11318 1080.47361,365.643235 C1080.47361,364.964425 1080.5781,364.311732 1080.78709,363.685138 C1080.99609,363.058544 1081.2312,362.745252 1081.49244,362.745252 L1118.87565,362.745252 C1119.34588,362.745252 1119.77692,362.836629 1120.16878,363.019385 C1120.56064,363.202142 1120.75657,363.528488 1120.75657,363.998434 C1120.75657,364.72946 1120.65207,365.395206 1120.44308,365.995692 C1120.23409,366.596178 1119.99898,366.896417 1119.73774,366.896417 L1102.96623,366.896417 Z M1129.95216,417.963579 C1129.95216,418.537957 1129.84766,419.02095 1129.63867,419.412571 C1129.42968,419.804192 1129.06395,420 1128.54147,420 C1127.75775,420 1127.01323,419.882515 1126.30788,419.647543 C1125.60253,419.41257 1125.24987,419.164547 1125.24987,418.903466 L1125.24987,362.901899 C1125.24987,362.640818 1125.60253,362.379742 1126.30788,362.118661 C1127.01323,361.85758 1127.75775,361.727041 1128.54147,361.727041 C1129.06395,361.727041 1129.42968,361.935903 1129.63867,362.353632 C1129.84766,362.771362 1129.95216,363.267408 1129.95216,363.841786 L1129.95216,417.963579 Z M1156.85971,366.896417 L1156.85971,417.963579 C1156.85971,418.537957 1156.75522,419.02095 1156.54622,419.412571 C1156.33723,419.804192 1155.99763,420 1155.5274,420 C1154.69143,420 1153.92078,419.882515 1153.21544,419.647543 C1152.51009,419.41257 1152.15742,419.164547 1152.15742,418.903466 L1152.15742,366.896417 L1136.248,366.896417 C1135.67328,366.896417 1135.21611,366.80504 1134.8765,366.622283 C1134.53689,366.439527 1134.36709,366.11318 1134.36709,365.643235 C1134.36709,364.964425 1134.47158,364.311732 1134.68057,363.685138 C1134.88956,363.058544 1135.12468,362.745252 1135.38592,362.745252 L1172.76913,362.745252 C1173.23936,362.745252 1173.6704,362.836629 1174.06226,363.019385 C1174.45412,363.202142 1174.65005,363.528488 1174.65005,363.998434 C1174.65005,364.72946 1174.54555,365.395206 1174.33656,365.995692 C1174.12757,366.596178 1173.89246,366.896417 1173.63122,366.896417 L1156.85971,366.896417 Z M1213.54844,399.400822 L1213.54844,362.980223 C1213.54844,362.719142 1213.90111,362.445012 1214.60646,362.157823 C1215.3118,361.870634 1216.05633,361.727041 1216.84004,361.727041 C1217.36252,361.727041 1217.72825,361.948957 1217.93725,362.392794 C1218.14624,362.836632 1218.25073,363.345732 1218.25073,363.92011 L1218.25073,399.55747 C1218.25073,403.421467 1217.84582,406.645767 1217.03597,409.230468 C1216.22613,411.815169 1215.01138,413.916838 1213.3917,415.535539 C1211.77201,417.154241 1209.73437,418.302979 1207.27872,418.98179 C1204.82307,419.6606 1201.94947,420 1198.65785,420 L1198.03088,420 C1194.84376,420 1192.07466,419.6606 1189.7235,418.98179 C1187.37234,418.302979 1185.41307,417.154241 1183.84564,415.535539 C1182.2782,413.916838 1181.10264,411.815169 1180.31892,409.230468 C1179.5352,406.645767 1179.14335,403.421467 1179.14335,399.55747 L1179.14335,362.980223 C1179.14335,362.719142 1179.49601,362.445012 1180.20136,362.157823 C1180.90671,361.870634 1181.67735,361.727041 1182.51332,361.727041 C1182.98355,361.727041 1183.32316,361.948957 1183.53215,362.392794 C1183.74114,362.836632 1183.84564,363.345732 1183.84564,363.92011 L1183.84564,399.400822 C1183.84564,402.481577 1184.11993,405.079292 1184.66854,407.194047 C1185.21714,409.308802 1186.05309,411.005803 1187.17643,412.285099 C1188.29976,413.564395 1189.76268,414.491218 1191.56523,415.065596 C1193.36778,415.639974 1195.52298,415.927159 1198.03088,415.927159 L1198.65785,415.927159 C1201.3225,415.927159 1203.59525,415.639974 1205.47617,415.065596 C1207.3571,414.491218 1208.89839,413.564395 1210.10009,412.285099 C1211.3018,411.005803 1212.17694,409.308802 1212.72554,407.194047 C1213.27414,405.079292 1213.54844,402.481577 1213.54844,399.400822 Z M1245.23666,366.896417 L1245.23666,417.963579 C1245.23666,418.537957 1245.13216,419.02095 1244.92317,419.412571 C1244.71418,419.804192 1244.37457,420 1243.90434,420 C1243.06837,420 1242.29773,419.882515 1241.59238,419.647543 C1240.88703,419.41257 1240.53437,419.164547 1240.53437,418.903466 L1240.53437,366.896417 L1224.62495,366.896417 C1224.05022,366.896417 1223.59306,366.80504 1223.25345,366.622283 C1222.91383,366.439527 1222.74403,366.11318 1222.74403,365.643235 C1222.74403,364.964425 1222.84853,364.311732 1223.05752,363.685138 C1223.26651,363.058544 1223.50162,362.745252 1223.76286,362.745252 L1261.14607,362.745252 C1261.61631,362.745252 1262.04734,362.836629 1262.4392,363.019385 C1262.83106,363.202142 1263.02699,363.528488 1263.02699,363.998434 C1263.02699,364.72946 1262.9225,365.395206 1262.7135,365.995692 C1262.50451,366.596178 1262.2694,366.896417 1262.00816,366.896417 L1245.23666,366.896417 Z M1267.52029,417.885256 L1267.52029,364.781672 C1267.52029,363.424052 1267.99052,362.745252 1268.93098,362.745252 L1298.00681,362.745252 C1298.42479,362.745252 1298.81665,362.836629 1299.18238,363.019385 C1299.54812,363.202142 1299.73098,363.528488 1299.73098,363.998434 C1299.73098,364.677244 1299.63955,365.329936 1299.45668,365.95653 C1299.27382,366.583124 1299.05177,366.896417 1298.79053,366.896417 L1272.22258,366.896417 L1272.22258,388.357157 L1296.28264,388.357157 C1296.70062,388.357157 1297.10554,388.448534 1297.4974,388.63129 C1297.88926,388.814047 1298.08518,389.140393 1298.08518,389.610339 C1298.08518,390.236933 1297.96763,390.876571 1297.73251,391.529274 C1297.49739,392.181976 1297.24922,392.508322 1296.98798,392.508322 L1272.22258,392.508322 L1272.22258,414.908949 L1298.00681,414.908949 C1298.42479,414.908949 1298.81665,415.000325 1299.18238,415.183082 C1299.54812,415.365839 1299.73098,415.692185 1299.73098,416.16213 C1299.73098,416.840941 1299.63955,417.493633 1299.45668,418.120227 C1299.27382,418.746821 1299.05177,419.060114 1298.79053,419.060114 L1270.34167,419.060114 C1269.76694,419.060114 1269.15303,418.955683 1268.49993,418.746818 C1267.84684,418.537953 1267.52029,418.250769 1267.52029,417.885256 Z" id="APPLIED-ARTIFICIAL-I" fill="#FFFFFF"></path>
                <path d="M683.235975,60 L792.871181,60 C795.541026,60 797.705362,62.163957 797.705362,64.8333333 L797.705362,174.861597 C797.705362,177.530973 795.541026,179.69493 792.871181,179.69493 L683.235975,179.69493 C680.566131,179.69493 678.401795,177.530973 678.401795,174.861597 L678.401795,64.8333333 C678.401795,62.163957 680.566131,60 683.235975,60 Z M762.40458,155.755944 C762.994746,155.755944 763.466871,155.252666 763.82097,154.246094 C764.175069,153.239522 764.440639,152.084942 764.617689,150.782319 C764.794738,149.479697 764.91277,148.147489 764.971786,146.785656 C765.030803,145.423824 765.06031,144.387662 765.06031,143.677141 C765.06031,142.729779 764.79474,141.782431 764.263591,140.835069 C763.732443,139.887708 763.053763,139.414034 762.227532,139.414034 L734.43089,139.414034 C740.096476,133.611442 744.670188,128.637867 748.152162,124.493159 C751.634137,120.348451 754.319348,116.795897 756.207877,113.835391 C758.096405,110.874885 759.365242,108.358493 760.014423,106.286139 C760.663605,104.213785 760.988191,102.348694 760.988191,100.690811 C760.988191,96.5461026 760.220988,93.0231535 758.686558,90.1218578 C757.152129,87.2205621 755.116089,84.8817975 752.578379,83.105494 C750.040669,81.3291905 747.060379,80.0265874 743.637421,79.1976458 C740.214463,78.3687042 736.555494,77.9542396 732.660403,77.9542396 C730.771875,77.9542396 728.470265,78.1022626 725.755505,78.3983132 C723.040745,78.6943638 719.558823,79.3160607 715.309633,80.2634226 C714.365369,80.5002631 713.775213,81.0923553 713.539147,82.0397172 C713.303081,82.9870791 713.303081,83.9344268 713.539147,84.8817886 C713.65718,85.4738898 713.893242,86.3916328 714.247341,87.6350453 C714.60144,88.8784578 714.985042,90.1218516 715.398158,91.365264 C715.811273,92.6086765 716.283398,93.6744426 716.814547,94.5625944 C717.345696,95.4507461 717.906344,95.8356061 718.49651,95.7171859 C720.739137,95.4803454 723.011239,95.2139039 725.312883,94.9178533 C727.614528,94.6218027 729.827614,94.4737796 731.952209,94.4737796 C734.903035,94.4737796 737.381691,94.8882442 739.388253,95.7171859 C741.394815,96.5461275 742.39808,98.2039859 742.39808,100.690811 C742.39808,101.875013 742.073494,103.236825 741.424313,104.776288 C740.775131,106.315752 739.358756,108.506493 737.175144,111.348579 C734.991533,114.190664 731.804689,117.861636 727.614516,122.361605 C723.424343,126.861574 717.78835,132.54566 710.706368,139.414034 C710.352269,139.887715 710.027683,140.687039 709.7326,141.812032 C709.437518,142.937024 709.171947,144.150813 708.935881,145.453436 C708.699815,146.756058 708.522768,147.999452 708.404735,149.183654 C708.286702,150.367857 708.227686,151.196786 708.227686,151.670467 C708.227686,152.262568 708.375226,153.091497 708.670308,154.157279 C708.965391,155.223061 709.762102,155.755944 711.060465,155.755944 L762.40458,155.755944 Z M889.90596,60 L999.541166,60 C1002.21101,60 1004.37535,62.163957 1004.37535,64.8333333 L1004.37535,174.861597 C1004.37535,177.530973 1002.21101,179.69493 999.541166,179.69493 L889.90596,179.69493 C887.236115,179.69493 885.071779,177.530973 885.071779,174.861597 L885.071779,64.8333333 C885.071779,62.163957 887.236115,60 889.90596,60 Z M969.074565,155.755944 C969.66473,155.755944 970.136855,155.252666 970.490954,154.246094 C970.845053,153.239522 971.110624,152.084942 971.287673,150.782319 C971.464723,149.479697 971.582754,148.147489 971.641771,146.785656 C971.700787,145.423824 971.730295,144.387662 971.730295,143.677141 C971.730295,142.729779 971.464725,141.782431 970.933576,140.835069 C970.402427,139.887708 969.723747,139.414034 968.897516,139.414034 L941.100875,139.414034 C946.76646,133.611442 951.340172,128.637867 954.822147,124.493159 C958.304121,120.348451 960.989333,116.795897 962.877861,113.835391 C964.76639,110.874885 966.035226,108.358493 966.684408,106.286139 C967.333589,104.213785 967.658175,102.348694 967.658175,100.690811 C967.658175,96.5461026 966.890972,93.0231535 965.356543,90.1218578 C963.822113,87.2205621 961.786074,84.8817975 959.248363,83.105494 C956.710653,81.3291905 953.730364,80.0265874 950.307406,79.1976458 C946.884447,78.3687042 943.225478,77.9542396 939.330388,77.9542396 C937.441859,77.9542396 935.140249,78.1022626 932.42549,78.3983132 C929.71073,78.6943638 926.228807,79.3160607 921.979618,80.2634226 C921.035354,80.5002631 920.445197,81.0923553 920.209131,82.0397172 C919.973065,82.9870791 919.973065,83.9344268 920.209131,84.8817886 C920.327164,85.4738898 920.563227,86.3916328 920.917326,87.6350453 C921.271425,88.8784578 921.655027,90.1218516 922.068142,91.365264 C922.481258,92.6086765 922.953383,93.6744426 923.484532,94.5625944 C924.01568,95.4507461 924.576329,95.8356061 925.166494,95.7171859 C927.409122,95.4803454 929.681224,95.2139039 931.982868,94.9178533 C934.284512,94.6218027 936.497598,94.4737796 938.622193,94.4737796 C941.573019,94.4737796 944.051676,94.8882442 946.058237,95.7171859 C948.064799,96.5461275 949.068065,98.2039859 949.068065,100.690811 C949.068065,101.875013 948.743479,103.236825 948.094297,104.776288 C947.445115,106.315752 946.02874,108.506493 943.845129,111.348579 C941.661518,114.190664 938.474673,117.861636 934.284501,122.361605 C930.094328,126.861574 924.458335,132.54566 917.376352,139.414034 C917.022253,139.887715 916.697667,140.687039 916.402585,141.812032 C916.107502,142.937024 915.841932,144.150813 915.605866,145.453436 C915.3698,146.756058 915.192753,147.999452 915.07472,149.183654 C914.956687,150.367857 914.897671,151.196786 914.897671,151.670467 C914.897671,152.262568 915.04521,153.091497 915.340293,154.157279 C915.635375,155.223061 916.432086,155.755944 917.73045,155.755944 L969.074565,155.755944 Z M645.619249,247.08838 L631.095337,203.113504 L567.293864,203.113504 L551.991885,247.869 C551.127362,250.471076 548.490606,252.032299 544.081539,252.552714 C539.672472,253.07313 534.960893,253.333333 529.94666,253.333333 C527.525996,253.333333 525.27827,252.943028 523.203415,252.162405 C521.12856,251.381782 520.091148,249.863926 520.091148,247.608793 C520.091148,247.26185 520.134374,246.914911 520.220826,246.567968 C520.307278,246.221024 520.436955,245.787351 520.609859,245.266936 L584.151977,65.4643338 C584.497786,64.2500313 585.578423,63.2959508 587.393921,62.6020637 C589.20942,61.9081766 591.284243,61.387769 593.618455,61.0408255 C595.952667,60.6938819 598.373295,60.4336782 600.880412,60.2602064 C603.387528,60.0867346 605.592028,60 607.493979,60 C608.877216,60 610.260431,60.4770402 611.643668,61.431135 C613.026905,62.3852298 614.064317,63.8163506 614.755935,65.7245402 L677.519986,245.266936 C677.69289,245.787351 677.822567,246.221024 677.909019,246.567968 C677.995471,246.914911 678.038697,247.26185 678.038697,247.608793 C678.038697,249.863926 676.958059,251.381782 674.796752,252.162405 C672.635445,252.943028 670.430944,253.333333 668.183185,253.333333 C662.477333,253.333333 657.506401,253.029762 653.270239,252.422611 C649.034077,251.81546 646.483772,250.037401 645.619249,247.08838 Z M597.379111,109.43921 L575.333887,176.052041 L623.055314,176.052041 L601.010089,109.43921 C600.491376,108.051436 600.102346,106.533581 599.842989,104.885599 C599.583632,103.237617 599.281054,101.719762 598.935245,100.331987 C598.589436,101.719762 598.373308,103.237617 598.286856,104.885599 C598.200403,106.533581 597.897825,108.051436 597.379111,109.43921 Z M856.949905,246.307761 C856.949905,248.389423 856.171846,250.080747 854.615705,251.381786 C853.059564,252.682824 851.157642,253.333333 848.909882,253.333333 C847.353741,253.333333 845.278917,253.246599 842.685348,253.073127 C840.09178,252.899655 837.541475,252.639451 835.034359,252.292508 C832.527242,251.945564 830.365967,251.381789 828.550469,250.601166 C826.734971,249.820543 825.827236,248.90983 825.827236,247.869 L825.827236,65.4643338 C825.827236,64.4235031 826.734971,63.5127899 828.550469,62.7321669 C830.365967,61.9515439 832.527242,61.387769 835.034359,61.0408255 C837.541475,60.6938819 840.09178,60.4336782 842.685348,60.2602064 C845.278917,60.0867346 847.353741,60 848.909882,60 C851.157642,60 853.059564,60.6938767 854.615705,62.081651 C856.171846,63.4694252 856.949905,65.1173824 856.949905,67.025572 L856.949905,246.307761 Z" id="A2I2_Logotype" fill="#FFFFFF" fill-rule="nonzero"></path>
                <path d="M210.834672,60 C243.925004,60 272.077315,79.446003 285.24856,107.587774 L285.278752,107.587774 L420.807393,412.350385 C421.265249,413.37997 421.389975,414.527182 421.164093,415.631298 C420.566262,418.55349 417.715837,420.437122 414.797486,419.838503 L305.33351,398.039999 C303.391006,361.888227 274.878869,311.28 210.636915,311.28 C147.156621,311.28 118.810654,363.048554 115.940319,398.039999 L6.45445847,419.894829 C5.35874613,420.114566 4.22192393,419.988116 3.20108563,419.532946 C0.479736988,418.319566 -0.744006595,415.126931 0.467777492,412.402001 L136.019371,107.587774 L136.049606,107.587774 C149.230808,79.4701572 177.761983,60 210.834672,60 Z M210.816946,271.68 C238.165806,271.68 260.325623,249.535039 260.325623,222.18 C260.325623,194.824959 238.165806,172.68 210.816946,172.68 C183.468088,172.68 161.30827,194.824959 161.30827,222.18 C161.30827,249.535039 183.468088,271.68 210.816946,271.68 Z" id="A2I2_Logomark" fill="#FF422E" fill-rule="nonzero"></path>
            </g>
        </g>
    </g>
</svg>