<svg width="324" height="297" viewBox="0 0 615 681" fill="none" xmlns="http://www.w3.org/2000/svg">
<path d="M307.499 681C424.698 681 519.849 666.307 519.849 648.349C519.849 630.391 424.698 615.699 307.499 615.699C190.301 615.699 95.1504 630.391 95.1504 648.349C95.1504 666.307 190.069 681 307.499 681Z" fill="#E9E2DE"/>
<path d="M548.395 77.8952C546.306 77.8952 544.218 76.9623 542.825 75.0965C540.504 72.0647 540.969 67.6335 543.986 65.0681L593.418 26.3537C596.435 24.0215 600.844 24.488 603.397 27.5198C605.718 30.5517 605.253 34.9828 602.236 37.5483L552.804 76.2626C551.412 77.1955 549.787 77.8952 548.395 77.8952Z" fill="#FFCF8D"/>
<path d="M85.6363 81.1603C84.0117 81.1603 82.6193 80.6938 81.2268 79.7609L35.74 43.612C32.7231 41.2798 32.0268 36.8486 34.5797 33.5835C36.9004 30.5517 41.5419 29.852 44.5589 32.4175L90.2778 68.3332C93.2948 70.6654 93.991 75.0966 91.4381 78.3616C89.8136 80.2274 87.7249 81.1603 85.6363 81.1603Z" fill="#FFCF8D"/>
<path d="M36.2035 569.988C34.1149 569.988 32.0262 569.055 30.6337 567.189C28.313 564.157 28.7771 559.726 31.7941 557.161L81.2262 518.446C84.2432 516.114 88.6526 516.581 91.2054 519.612C93.5262 522.644 93.062 527.075 90.045 529.641L40.613 568.355C39.2205 569.521 37.8281 569.988 36.2035 569.988Z" fill="#FFCF8D"/>
<path d="M593.88 563.924C592.256 563.924 590.863 563.458 589.471 562.525L543.752 526.609C540.735 524.277 540.039 519.846 542.591 516.58C544.912 513.549 549.554 513.082 552.571 515.414L598.289 551.33C601.306 553.662 602.003 558.094 599.45 561.359C598.057 562.991 595.969 563.924 593.88 563.924Z" fill="#FFCF8D"/>
<path d="M517.993 68.3332V563.224C517.993 570.221 512.191 576.051 505.229 576.051H123C116.038 576.051 110.236 570.221 110.236 563.224V68.3332C110.236 61.3366 116.038 55.5061 123 55.5061H505.229C512.191 55.7393 517.993 61.3366 517.993 68.3332Z" fill="white"/>
<path d="M497.105 155.324C495.017 155.324 493.624 153.691 493.624 151.826V104.715C493.624 99.5846 489.447 95.6199 484.341 95.6199H458.581C456.492 95.6199 455.1 93.9873 455.1 92.1216C455.1 90.0226 456.724 88.6233 458.581 88.6233H484.341C493.392 88.6233 500.586 95.8531 500.586 104.949V151.826C500.586 153.691 498.962 155.324 497.105 155.324Z" fill="#00CDDC"/>
<path d="M400.329 28.686H360.412C356.467 28.686 353.45 25.6541 353.45 21.6894V8.62911C353.45 3.73151 349.505 0 344.863 0H314.461H314.229H283.828C278.954 0 275.241 3.96473 275.241 8.62911V21.6894C275.241 25.6541 271.992 28.686 268.278 28.686H227.897C223.024 28.686 219.311 32.6507 219.311 37.3151V69.9658C219.311 74.8634 223.256 78.5949 227.897 78.5949H313.997H314.229H400.329C405.203 78.5949 408.916 74.6301 408.916 69.9658V37.3151C408.916 32.6507 404.971 28.686 400.329 28.686Z" fill="#00CDDC"/>
<path d="M257.836 282.428C253.891 282.662 250.874 285.927 251.106 289.891C251.338 293.856 254.587 296.888 258.533 296.655H444.657C448.603 296.655 451.852 293.623 451.852 289.658C451.852 285.694 448.835 282.428 444.889 282.428H444.657H258.533C258.301 282.428 258.069 282.428 257.836 282.428Z" fill="#FF9F1A"/>
<path d="M226.738 289.425C226.738 303.185 215.599 314.379 201.906 314.379C188.214 314.379 177.074 303.185 177.074 289.425C177.074 275.665 188.214 264.471 201.906 264.471C215.599 264.471 226.738 275.665 226.738 289.425Z" fill="#FF9F1A"/>
<path d="M257.836 350.762C253.891 350.995 250.874 354.26 251.106 358.225C251.338 362.189 254.587 365.221 258.533 364.988H444.657C448.603 364.988 451.852 361.956 451.852 357.991C451.852 354.027 448.835 350.762 444.889 350.762H444.657H258.533C258.301 350.762 258.069 350.762 257.836 350.762Z" fill="#FF9F1A"/>
<path d="M226.738 357.991C226.738 371.751 215.599 382.946 201.906 382.946C188.214 382.946 177.074 371.751 177.074 357.991C177.074 344.232 188.214 333.037 201.906 333.037C215.599 333.037 226.738 344.232 226.738 357.991Z" fill="#FF9F1A"/>
<path d="M257.836 422.593C253.891 422.826 250.874 426.091 251.106 430.056C251.338 434.021 254.587 437.053 258.533 436.82H444.657C448.603 436.82 451.852 433.788 451.852 429.823C451.852 425.858 448.835 422.593 444.889 422.593H444.657H258.533C258.301 422.593 258.069 422.593 257.836 422.593Z" fill="#FF9F1A"/>
<path d="M226.738 429.59C226.738 443.35 215.599 454.544 201.906 454.544C188.214 454.544 177.074 443.35 177.074 429.59C177.074 415.83 188.214 404.635 201.906 404.635C215.599 404.868 226.738 415.83 226.738 429.59Z" fill="#FF9F1A"/>
<path d="M257.836 490.926C253.891 491.16 250.874 494.425 251.106 498.389C251.338 502.354 254.587 505.386 258.533 505.153H444.657C448.603 505.153 451.852 502.121 451.852 498.156C451.852 494.191 448.835 490.926 444.889 490.926H444.657H258.533C258.301 490.926 258.069 490.926 257.836 490.926Z" fill="#FF9F1A"/>
<path d="M226.738 497.923C226.738 511.683 215.599 522.877 201.906 522.877C188.214 522.877 177.074 511.683 177.074 497.923C177.074 484.163 188.214 472.969 201.906 472.969C215.599 473.202 226.738 484.396 226.738 497.923Z" fill="#FF9F1A"/>
<path d="M399.17 60.4038C398.01 60.4038 397.082 59.4709 397.082 58.3048V43.612C397.082 40.5802 394.761 38.248 391.744 38.248H375.266C374.106 38.248 373.178 37.3151 373.178 36.149C373.178 34.9829 374.106 34.05 375.266 34.05H391.744C396.849 34.05 401.259 38.248 401.259 43.3788V58.0716C401.259 59.4709 400.331 60.4038 399.17 60.4038Z" fill="white"/>
<path d="M197.033 302.019C196.336 302.019 195.872 301.786 195.176 301.319L188.214 295.022C187.518 294.323 187.518 293.157 187.982 292.457C188.678 291.757 189.838 291.757 190.535 292.224L196.568 297.821L212.582 277.764C213.278 277.064 214.438 276.831 215.135 277.531C215.831 278.231 216.063 279.397 215.367 280.096L198.889 300.853C198.425 301.786 197.729 302.019 197.033 302.019Z" fill="white"/>
<path d="M197.033 371.052C196.336 371.052 195.872 370.818 195.176 370.352L188.214 364.055C187.518 363.355 187.518 362.189 187.982 361.49C188.678 360.79 189.838 360.79 190.535 361.256L196.568 366.854L212.582 346.797C213.278 346.097 214.438 345.864 215.135 346.564C215.831 347.263 216.063 348.429 215.367 349.129L198.889 369.886C198.425 370.818 197.729 371.052 197.033 371.052Z" fill="white"/>
<path d="M197.033 442.417C196.336 442.417 195.872 442.184 195.176 441.717L188.214 435.42C187.518 434.721 187.518 433.554 187.982 432.855C188.678 432.155 189.838 432.155 190.535 432.622L196.568 438.219L212.582 418.162C213.278 417.462 214.438 417.229 215.135 417.929C215.831 418.628 216.063 419.795 215.367 420.494L198.889 441.251C198.425 442.184 197.729 442.417 197.033 442.417Z" fill="white"/>
<path d="M197.033 510.284C196.336 510.284 195.872 510.05 195.176 509.584L188.214 503.287C187.518 502.587 187.518 501.421 187.982 500.722C188.678 500.022 189.838 500.022 190.535 500.488L196.568 506.086L212.582 486.029C213.278 485.329 214.438 485.096 215.135 485.796C215.831 486.495 216.063 487.661 215.367 488.361L198.889 509.117C198.425 510.05 197.729 510.284 197.033 510.284Z" fill="white"/>
<path d="M308.427 167.218H433.98C437.925 167.218 440.942 163.953 440.942 160.222C440.942 156.257 437.693 153.225 433.98 153.225H308.427C304.482 153.225 301.465 156.49 301.465 160.222C301.233 164.186 304.482 167.218 308.427 167.218Z" fill="#FF9F1A"/>
<path d="M308.427 193.105H398.24C402.186 193.105 405.203 189.84 405.203 186.109C405.203 182.144 401.954 179.112 398.24 179.112H308.427C304.482 179.112 301.465 182.377 301.465 186.109C301.233 190.074 304.482 193.105 308.427 193.105Z" fill="#FF9F1A"/>
<path d="M201.441 231.587C235.324 231.587 262.941 204.067 262.941 170.017C262.941 135.967 235.324 108.447 201.441 108.447C167.558 108.447 139.941 135.734 139.941 169.784C139.941 203.834 167.558 231.587 201.441 231.587Z" fill="#FF9F1A"/>
<path d="M201.21 141.098L173.593 152.992L165.006 120.341C173.593 114.044 183.572 109.846 194.944 108.68L204.227 141.098H201.21Z" fill="#FFCF8D"/>
<path d="M238.108 120.341L226.505 152.759L206.314 140.864L202.137 136.9L210.724 108.913C220.935 110.546 230.218 114.511 238.108 120.341Z" fill="#FFE7C6"/>
<path d="M245.304 180.512C246.696 178.646 248.553 176.314 248.553 173.282C248.553 170.25 246.696 167.918 245.304 166.052C244.607 165.119 243.911 164.186 243.679 163.487C243.447 162.787 243.911 161.621 244.143 160.455C244.607 158.123 245.304 155.324 243.911 152.525C242.519 149.727 239.966 148.561 237.877 147.395C236.949 146.928 235.789 146.462 235.092 145.995C234.628 145.529 234.396 144.13 234.164 143.197C233.7 140.864 233.004 138.066 230.683 136.2C228.362 134.334 225.577 134.334 223.256 134.334C222.096 134.334 220.704 134.334 220.24 133.868C219.775 133.635 218.847 132.469 218.151 131.769C216.758 129.903 214.902 127.571 212.117 126.871C211.653 126.638 211.189 126.638 210.492 126.638C208.404 126.638 206.315 127.571 204.458 128.504C203.53 128.97 202.138 129.67 201.441 129.67C200.745 129.67 199.585 128.97 198.424 128.504C196.8 127.571 194.711 126.638 192.39 126.638C191.926 126.638 191.23 126.638 190.766 126.871C187.749 127.571 185.892 129.903 184.732 131.769C184.036 132.702 183.34 133.868 182.643 133.868C182.179 134.334 180.555 134.334 179.626 134.334C177.306 134.334 174.289 134.334 172.2 136.2C169.879 138.066 169.183 140.864 168.719 143.197C168.487 144.13 168.255 145.762 167.79 145.995C167.326 146.462 166.166 146.928 165.006 147.395C162.917 148.327 160.132 149.727 158.972 152.525C157.579 155.324 158.275 158.123 158.74 160.455C159.204 161.621 159.204 163.02 159.204 163.487C158.972 163.953 158.275 165.119 157.579 166.052C156.187 167.918 154.33 170.25 154.33 173.282C154.33 176.314 156.187 178.646 157.579 180.512C158.275 181.445 158.972 182.377 159.204 183.077C159.436 183.777 158.972 185.176 158.74 186.109C158.275 188.441 157.579 191.24 158.972 194.038C160.364 196.837 162.917 198.003 165.006 199.169C165.934 199.636 167.094 200.102 167.79 200.569C168.255 201.035 168.487 202.434 168.719 203.367C169.183 205.699 169.879 208.498 172.2 210.364C174.521 212.229 177.306 212.229 179.626 212.229C180.787 212.229 182.179 212.229 182.643 212.696C183.107 212.929 184.036 214.095 184.732 214.795C186.124 216.661 187.981 218.993 190.766 219.693C191.23 219.926 191.694 219.926 192.39 219.926C194.479 219.926 196.568 218.993 198.424 218.06C199.353 217.594 200.745 216.894 201.441 216.894C202.138 216.894 203.298 217.594 204.458 218.06C206.083 218.993 208.172 219.926 210.492 219.926C210.956 219.926 211.653 219.926 212.117 219.693C215.134 218.993 216.99 216.661 218.151 214.795C218.847 213.862 219.543 212.696 220.24 212.696C220.704 212.229 222.328 212.229 223.256 212.229C225.577 212.229 228.594 212.229 230.683 210.364C233.004 208.498 233.7 205.699 234.164 203.367C234.396 202.434 234.628 200.802 235.092 200.569C235.557 200.102 236.717 199.636 237.877 199.169C239.966 198.236 242.751 196.837 243.911 194.038C245.304 191.24 244.607 188.441 244.143 186.109C243.679 184.943 243.679 183.544 243.679 183.077C243.679 182.377 244.607 181.211 245.304 180.512ZM201.441 202.434C185.428 202.434 172.432 189.374 172.432 173.282C172.432 157.19 185.428 144.129 201.441 144.129C217.455 144.129 230.451 157.19 230.451 173.282C230.451 189.374 217.455 202.434 201.441 202.434Z" fill="white"/>
<path d="M203.297 154.858L207.706 163.72C208.171 164.42 208.635 164.886 209.331 164.886L219.078 166.285C220.935 166.519 221.631 168.851 220.239 170.017L213.276 176.78C212.812 177.247 212.58 177.946 212.58 178.646L214.205 188.441C214.437 190.307 212.58 191.706 210.955 190.773L202.369 186.109C201.672 185.643 200.976 185.643 200.28 186.109L191.693 190.773C190.069 191.706 188.212 190.307 188.444 188.441L190.069 178.646C190.301 177.946 189.837 177.247 189.372 176.78L182.41 170.017C181.25 168.851 181.946 166.519 183.571 166.285L193.318 164.886C194.014 164.886 194.71 164.42 194.942 163.72L199.352 154.858C200.28 153.225 202.601 153.225 203.297 154.858Z" fill="#FFE7C6"/>
</svg>
